<svg width="12" height="7" viewBox="0 0 12 7" fill="none" xmlns="http://www.w3.org/2000/svg">
<path d="M1.34166 0.5H10.6583C10.8231 0.500691 10.984 0.550237 11.1207 0.642372C11.2573 0.734508 11.3636 0.865096 11.426 1.01762C11.4885 1.17015 11.5043 1.33776 11.4715 1.49928C11.4386 1.66079 11.3587 1.80894 11.2417 1.925L6.59166 6.57499C6.51419 6.6531 6.42202 6.71509 6.32047 6.7574C6.21892 6.79971 6.11 6.82149 5.99999 6.82149C5.88998 6.82149 5.78106 6.79971 5.67951 6.7574C5.57796 6.71509 5.4858 6.6531 5.40833 6.57499L0.758332 1.925C0.641314 1.80894 0.561338 1.66079 0.528517 1.49928C0.495696 1.33776 0.511504 1.17015 0.573942 1.01762C0.63638 0.865096 0.742644 0.734508 0.879296 0.642372C1.01595 0.550237 1.17685 0.500691 1.34166 0.5Z" fill="#7A8891"/>
</svg>
