<svg width="188" height="61" viewBox="0 0 188 61" fill="none" xmlns="http://www.w3.org/2000/svg">
<path d="M84.283 10.2888C85.1868 10.1119 86.471 9.9671 87.7236 9.9671C89.0554 9.9671 90.3713 10.1119 91.3861 10.2888L84.9648 22.031L92.4166 35.8161C92.4166 35.8161 90.7677 36.1378 88.5163 36.1378C86.1064 36.1378 84.7904 35.8161 84.7904 35.8161L78.9875 25.0068H77.8459V35.8161C77.8459 35.8161 76.8471 36.1378 74.4371 36.1378C72.2491 36.1378 71.0283 35.8161 71.0283 35.8161V10.2888C71.0283 10.2888 72.2174 9.9671 74.4688 9.9671C76.7202 9.9671 77.8459 10.2888 77.8459 10.2888V20.0686H78.9875L84.283 10.2888Z" fill="#31BBAC"/>
<path d="M94.0659 36.042C93.9073 35.5112 93.7646 34.9321 93.7646 34.2083C93.7646 33.4844 93.8756 32.8571 94.0659 32.2619C94.3988 32.3102 94.7476 32.3424 95.2391 32.2298C96.1904 32.0367 97.6174 30.9751 98.0772 25.0558L98.7589 16.1767H110.999V35.8972C110.999 35.8972 110.016 36.1546 108.478 36.1546C106.813 36.1546 105.799 35.8972 105.83 35.8972V20.2463H103.008L102.675 25.1201C102.041 34.2726 99.2346 36.3798 96.3966 36.3798C95.3184 36.3798 94.5891 36.2028 94.0659 36.042Z" fill="#31BBAC"/>
<path d="M114.709 16.4341C114.709 16.4341 115.74 16.1767 117.278 16.1767C118.831 16.1767 119.894 16.4341 119.894 16.4341V35.8972C119.894 35.8972 118.8 36.1546 117.294 36.1546C115.661 36.1546 114.693 35.8972 114.693 35.8972V16.4341H114.709Z" fill="#31BBAC"/>
<path d="M133.863 16.4341C133.863 16.4341 134.957 16.1767 136.463 16.1767C138.001 16.1767 139.079 16.4341 139.079 16.4341V35.8972C139.079 35.8972 138.017 36.1546 136.479 36.1546C134.846 36.1546 133.863 35.8972 133.863 35.8972V27.9993H128.726V35.8972C128.726 35.8972 127.632 36.1546 126.126 36.1546C124.493 36.1546 123.525 35.8972 123.525 35.8972V16.4341C123.525 16.4341 124.556 16.1767 126.094 16.1767C127.648 16.1767 128.71 16.4341 128.71 16.4341V23.8333H133.847V16.4341H133.863Z" fill="#31BBAC"/>
<path d="M142.772 16.4341C142.772 16.4341 143.802 16.1767 145.34 16.1767C146.894 16.1767 147.956 16.4341 147.956 16.4341V35.8972C147.956 35.8972 146.862 36.1546 145.356 36.1546C143.723 36.1546 142.756 35.8972 142.756 35.8972V16.4341H142.772Z" fill="#31BBAC"/>
<path d="M161.718 16.4341C162.4 16.2893 163.383 16.1767 164.334 16.1767C165.349 16.1767 166.363 16.2893 167.124 16.4341L162.225 25.3935L167.917 35.8972C167.917 35.8972 166.665 36.1546 164.937 36.1546C163.097 36.1546 162.098 35.8972 162.098 35.8972L157.675 27.6616H156.803V35.8972C156.803 35.8972 156.042 36.1546 154.203 36.1546C152.538 36.1546 151.603 35.8972 151.603 35.8972V16.4341C151.603 16.4341 152.506 16.1767 154.219 16.1767C155.947 16.1767 156.787 16.4341 156.787 16.4341V23.8976H157.659L161.718 16.4341Z" fill="#31BBAC"/>
<path d="M178.572 16.1926C180.839 16.1926 181.902 16.45 181.902 16.45L187.863 35.9131C187.863 35.9131 186.959 36.1705 185.184 36.1705C183.566 36.1705 182.694 35.9131 182.694 35.9131L181.6 32.2457H175.29L174.196 35.9131C174.196 35.9131 173.261 36.1705 171.675 36.1705C170.137 36.1705 169.218 35.9131 169.218 35.9131L175.195 16.45C175.211 16.4339 176.4 16.1926 178.572 16.1926ZM178.382 20.793C178.382 20.793 178.271 22.3694 177.732 24.1709L176.368 28.6104H180.522L179.206 24.1709C178.667 22.3372 178.493 20.793 178.493 20.793H178.382Z" fill="#31BBAC"/>
<path d="M71.4572 48.8937C71.6634 47.4621 72.2024 44.2933 73.6769 42.3148C74.3904 41.3336 75.421 40.658 76.6894 40.642C80.5421 40.5937 80.2884 44.7437 77.8468 46.2879C79.8445 46.6578 79.686 49.7623 78.4176 51.5317C79.1627 51.5477 80.1616 51.2743 80.9226 49.6819C81.0336 49.4406 81.8105 49.9231 81.6995 50.1161C80.2885 52.7702 78.7347 52.545 77.4504 52.4485C76.5625 53.1402 75.5478 53.5262 74.2636 53.478C71.7268 53.3815 71.0926 51.4834 71.4572 48.8937ZM75.3576 51.5799C75.088 51.033 75.532 50.3092 76.1662 50.3413C76.7052 49.1028 76.8004 47.8964 75.8649 47.8642C75.2149 47.8481 74.4063 48.3629 74.1367 48.6524C73.6928 50.647 73.7721 51.8373 74.7075 51.8694C74.9453 51.8694 75.1832 51.7569 75.3576 51.5799ZM76.6577 45.2262C77.5138 44.3094 77.7517 42.7009 76.5467 42.7491C75.7539 42.7652 75.0563 44.1003 74.5331 46.4809C75.2307 46.1109 76.1186 45.8053 76.6577 45.2262Z" fill="#7A8891"/>
<path d="M89.6111 46.0624C89.1671 47.9765 87.7561 51.9656 88.5171 51.9174C89.0086 51.9013 90.0074 50.9523 90.6258 49.6815C90.7685 49.4081 91.5137 49.9228 91.4027 50.0997C90.6575 51.4831 89.1513 53.6063 87.2804 53.5741C86.345 53.5581 85.8059 52.5929 86.0913 51.3061C85.1083 52.9147 83.9984 53.5741 82.6191 53.5741C80.6055 53.5741 80.5262 52.0621 80.8116 50.7914C81.1763 49.1668 81.7787 47.3813 82.2385 45.7567C82.5398 45.3063 84.8546 45.435 84.9497 46.0463C84.6961 46.9953 84.2997 48.3304 84.0143 49.5368C83.7131 50.7753 83.3643 51.8048 83.9192 51.7887C84.5534 51.7726 85.4571 50.4536 85.8218 49.2794C86.1864 48.1534 86.5669 46.8666 86.884 45.7406C87.2011 45.3546 89.2147 45.4029 89.6111 46.0624Z" fill="#7A8891"/>
<path d="M101.294 50.1159C100.343 51.9979 98.9952 53.2043 97.7902 53.4778C96.9499 53.6869 96.173 53.6065 95.5546 52.947C95.301 52.6896 94.9839 52.1105 94.7778 51.7406L93.5569 53.2043C93.0337 53.8317 90.3859 53.6386 90.9092 53.0917L93.7472 49.6817C93.5411 49.1508 93.4301 48.8774 93.3032 48.5718C93.0179 47.9444 92.7959 47.7514 92.5422 48.1536C92.3202 48.5074 91.8763 49.3278 91.1153 50.5985C90.9726 50.8559 90.1957 50.4537 90.3542 50.1642C91.5275 48.1536 92.3044 45.8534 93.6679 45.6282C95.0949 45.3869 95.4278 46.5129 95.9193 47.6067L97.0292 46.2394C97.6158 45.5317 100.089 45.8855 99.6928 46.3359L96.8865 49.7621C97.0609 50.2125 97.1243 50.4055 97.2987 50.7433C97.5999 51.3867 97.9329 51.9175 98.3134 51.9014C98.9476 51.8853 99.7403 51.1937 100.533 49.6977C100.66 49.4565 101.373 49.9712 101.294 50.1159Z" fill="#7A8891"/>
<path d="M100.487 51.0809C100.883 49.3437 101.438 47.4457 101.946 45.7085C102.389 45.3224 104.435 45.4672 104.752 46.0784C104.165 48.1856 103.594 49.8263 103.42 50.8075C103.309 51.4992 103.404 51.8691 103.642 51.8691C104.276 51.8852 105.354 51.0166 105.957 49.6815C106.068 49.4242 106.813 49.955 106.734 50.1158C105.909 51.6922 104.514 53.4455 102.469 53.5259C100.534 53.6224 100.138 52.5608 100.487 51.0809ZM102.611 43.0866C102.786 42.2341 103.468 41.5585 104.435 41.5746C105.37 41.5906 105.862 42.2662 105.719 43.0866C105.576 43.923 104.91 44.5986 103.848 44.5986C103.008 44.5986 102.453 43.8908 102.611 43.0866Z" fill="#7A8891"/>
<path d="M115.326 46.7861C115.469 47.14 114.645 48.2338 114.296 48.1373C113.551 47.51 112.393 47.2526 111.474 47.3169C110.38 47.3652 109.444 48.3464 108.937 49.585C108.445 50.7753 108.509 51.5313 108.81 51.7565C109.19 52.0138 109.983 51.5473 110.649 50.1801C110.887 49.6975 111.22 48.9094 111.474 48.2499C111.902 47.8156 113.82 48.2981 113.963 48.7485C113.408 50.5501 113.202 51.6921 112.805 53.1076C114.042 52.5768 114.787 51.5956 115.834 49.6493C115.945 49.4241 116.722 49.9067 116.595 50.1319C115.215 52.6733 114.216 53.7671 112.457 54.4588C111.696 56.8394 111.156 58.8179 108.239 58.8179C106.765 58.8179 105.718 57.9975 105.893 56.6625C106.178 54.6196 108.16 54.2014 110.142 53.8154C110.395 53.1076 110.633 52.4481 110.855 51.7404C110.3 52.6733 109.492 53.5258 108.033 53.5419C105.227 53.5902 105.163 50.1479 106.923 47.9282C107.906 46.6092 109.428 45.821 110.649 45.6441C111.965 45.4511 114.01 45.628 115.326 46.7861ZM108.192 56.3086C107.827 57.2415 108.984 57.515 109.492 56.2281C109.603 55.9225 109.698 55.5526 109.777 55.1826C108.921 55.4239 108.35 55.8904 108.192 56.3086Z" fill="#7A8891"/>
<path d="M120.608 50.4856H118.911C118.689 51.3864 118.436 52.2389 118.214 53.2362C118.103 53.7348 115.138 53.8153 115.328 53.1075C115.978 50.6947 116.533 48.3463 117.183 45.9335C117.31 45.4831 120.227 45.4027 120.069 46.0461C119.815 47.0434 119.546 47.9441 119.324 48.8288H120.972C121.226 47.8798 121.416 46.9308 121.654 45.9657C121.781 45.5153 124.746 45.4348 124.587 46.0783C124.159 47.735 123.684 49.3436 123.398 50.4213C123.224 51.0969 123.145 51.8689 123.604 51.885C124.191 51.9011 125.158 50.936 125.729 49.6974C125.856 49.4401 126.585 49.9709 126.506 50.1318C125.808 51.499 124.429 53.4131 122.399 53.5579C120.433 53.6866 120.18 52.4641 120.608 50.4856Z" fill="#7A8891"/>
<path d="M132.943 51.499C133.783 51.6116 134.798 51.0003 135.432 49.6652C135.559 49.4079 136.32 49.9065 136.209 50.0995C134.956 52.5445 133.323 52.6088 132.055 52.448C131.151 53.204 130.025 53.5579 128.82 53.5579C126.696 53.5579 125.126 52.4802 125.84 49.4883C126.458 46.8342 128.503 45.5474 130.723 45.5635C134.068 45.6278 134.576 48.7806 132.943 51.499ZM128.804 49.4561C128.519 50.5338 128.17 51.9011 129.217 51.9011C129.454 51.9011 129.692 51.7885 129.867 51.6116C129.581 51.0647 129.978 50.2926 130.58 50.2765C131.072 48.7805 131.198 47.2685 130.295 47.2846C129.645 47.3007 129.153 48.2015 128.804 49.4561Z" fill="#7A8891"/>
<path d="M136.685 51.7243C136.685 49.9227 138.334 49.0702 139.079 48.2981C139.269 48.0729 139.396 47.8477 139.428 47.5904C139.46 46.8826 138.651 46.6735 137.684 47.8316C137.034 48.6198 136.669 49.3437 135.94 50.6144C135.781 50.8878 135.02 50.4857 135.179 50.1801C136.083 48.5072 137.288 45.5636 139.983 45.5958C141.505 45.6119 142.25 46.4483 142.25 47.526C142.25 48.9898 140.902 49.6653 140.094 50.2766C139.111 51.0487 139.269 52.046 140.189 52.0299C141.013 52.0138 142.567 51.6277 143.519 49.6975C143.645 49.4402 144.359 49.971 144.295 50.1157C142.964 52.7376 140.918 53.5741 139.158 53.5902C137.652 53.5902 136.685 52.9789 136.685 51.7243Z" fill="#7A8891"/>
<path d="M150.699 51.499C151.54 51.6116 152.554 51.0003 153.189 49.6652C153.315 49.4079 154.076 49.9065 153.965 50.0995C152.713 52.5445 151.08 52.6088 149.811 52.448C148.908 53.204 147.782 53.5579 146.577 53.5579C144.453 53.5579 142.883 52.4802 143.596 49.4883C144.215 46.8342 146.26 45.5474 148.48 45.5635C151.809 45.6278 152.332 48.7806 150.699 51.499ZM146.561 49.4561C146.276 50.5338 145.927 51.9011 146.973 51.9011C147.211 51.9011 147.449 51.7885 147.623 51.6116C147.338 51.0647 147.734 50.2926 148.337 50.2765C148.828 48.7805 148.955 47.2685 148.052 47.2846C147.402 47.3007 146.894 48.2015 146.561 49.4561Z" fill="#7A8891"/>
<path d="M166.649 46.7861C166.791 47.14 165.967 48.2338 165.618 48.1373C164.873 47.51 163.715 47.2526 162.796 47.3169C161.702 47.3652 160.766 48.3464 160.259 49.585C159.768 50.7753 159.831 51.5313 160.132 51.7565C160.513 52.0138 161.305 51.5473 161.971 50.1801C162.209 49.6975 162.542 48.9094 162.796 48.2499C163.224 47.8156 165.142 48.2981 165.285 48.7485C164.73 50.5501 164.524 51.6921 164.128 53.1076C165.364 52.5768 166.11 51.5956 167.156 49.6493C167.267 49.4241 168.044 49.9067 167.917 50.1319C166.538 52.6733 165.539 53.7671 163.779 54.4588C163.018 56.8394 162.479 58.8179 159.561 58.8179C158.087 58.8179 157.041 57.9975 157.215 56.6625C157.5 54.6196 159.482 54.2014 161.464 53.8154C161.718 53.1076 161.956 52.4481 162.178 51.7404C161.623 52.6733 160.814 53.5258 159.355 53.5419C156.549 53.5902 156.486 50.1479 158.245 47.9282C159.228 46.6092 160.751 45.821 161.971 45.6441C163.287 45.4511 165.333 45.628 166.649 46.7861ZM159.53 56.3086C159.165 57.2415 160.322 57.515 160.83 56.2281C160.941 55.9225 161.02 55.5526 161.115 55.1826C160.243 55.4239 159.688 55.8904 159.53 56.3086Z" fill="#7A8891"/>
<path d="M171.929 50.4856H170.233C170.011 51.3864 169.757 52.2389 169.535 53.2362C169.424 53.7348 166.459 53.8153 166.649 53.1075C167.299 50.6947 167.854 48.3463 168.504 45.9335C168.631 45.4831 171.549 45.4027 171.39 46.0461C171.136 47.0434 170.867 47.9441 170.645 48.8288H172.294C172.547 47.8798 172.738 46.9308 172.976 45.9657C173.102 45.5153 176.067 45.4348 175.909 46.0783C175.481 47.735 175.005 49.3436 174.72 50.4213C174.545 51.0969 174.466 51.8689 174.926 51.885C175.512 51.9011 176.479 50.936 177.05 49.6974C177.177 49.4401 177.906 49.9709 177.827 50.1318C177.129 51.499 175.75 53.4131 173.721 53.5579C171.755 53.6866 171.501 52.4641 171.929 50.4856Z" fill="#7A8891"/>
<path d="M177.098 49.6814C177.225 49.4241 177.986 49.9227 177.875 50.1157C177.352 51.0487 177.717 51.8529 178.351 51.8529C178.922 51.8529 179.254 51.2256 179.556 50.4857C178.811 50.0514 178.351 49.2793 178.7 47.9281C179.508 44.7272 184.138 44.9041 186.453 47.0113C186.77 47.3008 185.818 48.6037 185.422 48.282C184.534 47.5743 183.25 47.2525 182.267 47.3008C181.617 47.3169 181.157 47.6547 180.983 48.3303C180.713 49.4884 181.966 49.8423 182.41 49.1184C182.568 48.845 182.616 48.4911 182.727 48.2498C182.98 47.7351 185.105 48.3463 184.899 48.9093C184.534 49.987 184.185 51.6277 184.613 51.8368C185.311 52.1586 186.738 50.7591 187.23 49.7136C187.34 49.4562 188.086 49.9388 187.991 50.1318C186.627 52.8502 184.645 53.6062 183.424 53.6062C182.219 53.6062 181.886 52.2872 182.188 50.8074C182.061 50.9039 181.966 50.92 181.839 50.9522C181.046 52.8502 180.269 53.6384 178.604 53.6062C176.686 53.5419 176.036 51.8368 177.098 49.6814Z" fill="#7A8891"/>
<path d="M58.8838 13.6672C58.9314 18.9432 54.714 23.5275 49.1806 23.5435C43.7741 23.5596 39.3981 19.104 39.4457 13.6029C39.4933 8.03736 43.9326 3.80696 49.1489 3.82304C54.5554 3.80696 58.8838 8.19822 58.8838 13.6672Z" fill="#31BBAC"/>
<path d="M33.579 49.4887C29.9957 50.1804 26.4918 49.8747 23.1147 48.4914C21.4658 47.8158 19.9596 46.9151 18.5802 45.7891C17.5021 44.9205 16.5191 43.9232 15.6471 42.8294C15.5836 42.749 15.5044 42.6525 15.4409 42.5559C15.3934 42.4755 15.2824 42.3951 15.33 42.2825C15.3775 42.1699 15.5044 42.2182 15.5995 42.2182C17.5655 42.1699 19.2937 41.4943 20.7682 40.1593C20.9426 39.9984 21.0377 40.0949 21.1646 40.2075C22.0207 41.06 22.9562 41.7999 24.0026 42.379C26.365 43.6658 28.87 44.1806 31.5495 43.8267C35.2913 43.328 38.2244 41.4943 40.3648 38.3416C41.554 36.5883 43.9798 36.524 45.2165 38.229C45.8982 39.162 45.9141 40.5775 45.2799 41.5587C43.5041 44.261 41.1893 46.3521 38.3513 47.8319C36.8451 48.604 35.2437 49.167 33.579 49.4887Z" fill="#209A8F"/>
<path d="M16.6935 40.9799C12.9676 41.8003 9.20997 39.2749 8.41722 35.4627C7.59277 31.5379 10.1137 27.6935 13.9189 26.9214C17.8033 26.1333 21.4499 28.6265 22.2585 32.5191C23.0513 36.3956 20.4828 40.3044 16.6935 40.9799Z" fill="#209A8F"/>
<path d="M39.0026 35.2054C36.0535 35.6076 33.4058 33.5486 33.0094 30.5407C32.613 27.5649 34.6425 24.8787 37.5598 24.4766C40.5563 24.0584 43.1724 26.1012 43.5846 29.077C44.0127 32.1492 41.904 34.8194 39.0026 35.2054Z" fill="#7A8891"/>
<path d="M28.458 20.4869C31.6131 20.0526 34.2292 20.8407 36.5757 22.6423C36.8611 22.8675 37.1465 23.0927 37.3843 23.3983C37.4794 23.527 37.5111 23.6074 37.305 23.6235C36.0525 23.8004 34.9744 24.3795 34.0548 25.2481C33.8487 25.4411 33.6901 25.425 33.4681 25.2963C32.1839 24.4921 30.7728 24.1704 29.2824 24.3634C27.5384 24.5886 26.0798 25.3768 24.9699 26.7923C24.415 27.5 23.7332 27.8539 22.8295 27.6287C21.4818 27.307 20.8794 25.6985 21.7038 24.5564C22.7502 23.1088 24.082 22.031 25.6992 21.2911C26.1749 21.0659 26.6664 20.8568 27.1737 20.7281C27.6653 20.6316 28.1726 20.5029 28.458 20.4869Z" fill="#7A8891"/>
<path d="M31.2967 41.4943C28.538 41.7999 25.8902 41.1565 23.5754 39.2584C22.529 38.4059 22.8461 36.524 24.0828 36.0092C24.8121 35.7036 25.4938 35.8162 26.1439 36.2827C28.1733 37.7143 30.3454 38.0199 32.6444 37.0387C33.5323 36.6526 34.2933 36.1057 34.9117 35.3658C35.0385 35.205 35.1495 35.2693 35.2922 35.3497C36.1801 35.8645 37.1313 36.1057 38.1461 36.1379C38.3997 36.154 38.6534 36.1379 38.9071 36.1057C39.1608 36.0897 39.1608 36.1862 39.0498 36.3631C38.2729 37.7143 37.2106 38.8241 35.9422 39.7249C34.5946 40.6579 33.0883 41.2208 31.2967 41.4943Z" fill="#7A8891"/>
<path d="M37.6379 13.7638C35.5926 12.7665 33.4046 12.1875 31.0898 12.0105C29.3933 11.8818 27.7127 11.9944 26.0638 12.3644C22.4964 13.1365 19.3889 14.8094 16.8045 17.4152C15.552 18.6859 14.5056 20.1175 13.6652 21.6938C12.9993 22.9324 12.492 24.2353 12.1115 25.5864C12.0798 25.699 12.048 25.8117 12.0322 25.9243C12.0163 26.0208 11.9529 26.1333 12.0322 26.2138C12.1273 26.2942 12.2224 26.1977 12.3176 26.1655C14.1567 25.4256 15.9959 25.3773 17.8668 26.0208C18.0888 26.1012 18.1522 25.9725 18.2156 25.8116C18.6754 24.6857 19.2462 23.6401 20.0072 22.6911C21.6878 20.5679 23.7965 19.1041 26.3967 18.3803C30.0275 17.3669 33.4363 17.8977 36.6232 19.9566C37.5903 20.5839 38.6843 20.6 39.5722 20.1496C38.3513 18.3159 37.6537 16.1283 37.6379 13.7638Z" fill="#209A8F"/>
<path d="M59.3908 24.1707C59.1213 22.9965 58.7883 21.8383 58.3761 20.6963C56.7113 22.9482 54.2538 24.5889 51.3524 25.1519C51.8439 27.0178 52.1134 28.9158 52.0975 30.9265C52.1292 32.2777 51.9866 33.6771 51.717 35.0604C50.9877 38.7761 49.4339 42.0736 47.0398 44.9689C45.1214 47.2852 42.8383 49.135 40.1746 50.5022C37.1305 52.0625 33.8961 52.8346 30.4873 52.8507C28.4262 52.8507 26.698 54.3949 26.4601 56.4377C26.2382 58.5288 27.5383 60.4268 29.5519 60.8933C30.2178 61.0541 30.8837 60.9898 31.5654 60.9737C32.8021 60.9415 34.0229 60.7968 35.2438 60.6038C38.0342 60.1373 40.7137 59.2848 43.2664 58.0301C46.0093 56.695 48.4985 54.9739 50.7023 52.8668C53.5879 50.1323 55.8552 46.9313 57.4882 43.2799C59.4701 38.8404 60.3421 34.1918 60.0884 29.318C60.0091 27.5969 59.7713 25.8757 59.3908 24.1707Z" fill="#31BBAC"/>
<path d="M40.0323 2.14996C41.1421 2.58426 42.2203 3.08291 43.2826 3.64589C40.8568 4.99705 39.0969 7.34549 38.1456 10.1765C36.3857 9.42049 34.3721 8.77707 32.4061 8.51971C31.0901 8.3106 29.7108 8.24627 28.3155 8.32669C24.5896 8.5358 21.1491 9.6296 17.994 11.6242C15.4572 13.2327 13.3326 15.2594 11.6362 17.7366C9.686 20.5836 8.46518 23.7203 7.98953 27.1464C7.68829 29.2214 5.94424 30.7495 3.93067 30.6852C1.85367 30.6208 0.188904 29.0445 0.0144998 26.9534C-0.0489198 26.2617 0.109637 25.6022 0.220621 24.9266C0.426735 23.6881 0.727975 22.4817 1.10849 21.2753C1.9488 18.5247 3.16964 15.9672 4.73927 13.5705C6.41989 10.9968 8.44932 8.74491 10.8276 6.81468C13.9034 4.30538 17.3439 2.47166 21.1332 1.3457C25.747 -0.0215489 30.4084 -0.230653 35.1173 0.686206C36.782 1.05617 38.431 1.52263 40.0323 2.14996Z" fill="#31BBAC"/>
</svg>
