<svg width="18" height="19" viewBox="0 0 18 19" fill="none" xmlns="http://www.w3.org/2000/svg">
<path fill-rule="evenodd" clip-rule="evenodd" d="M8.07692 1.75791C4.38086 1.75791 1.38461 4.75415 1.38461 8.45021C1.38461 12.1463 4.38086 15.1425 8.07692 15.1425C9.88676 15.1425 11.5288 14.4241 12.7334 13.2569C12.7541 13.2286 12.7773 13.2016 12.8028 13.1761C12.8283 13.1505 12.8553 13.1274 12.8836 13.1067C14.0508 11.9021 14.7692 10.2601 14.7692 8.45021C14.7692 4.75415 11.773 1.75791 8.07692 1.75791ZM14.2568 13.651C15.4406 12.2459 16.1538 10.4313 16.1538 8.45021C16.1538 3.98945 12.5377 0.373291 8.07692 0.373291C3.61616 0.373291 0 3.98945 0 8.45021C0 12.911 3.61616 16.5271 8.07692 16.5271C10.058 16.5271 11.8726 15.8138 13.2777 14.6301L16.8182 18.1705C17.0885 18.4409 17.5269 18.4409 17.7972 18.1705C18.0676 17.9002 18.0676 17.4618 17.7972 17.1914L14.2568 13.651Z" fill="#5B5B5B"/>
</svg>
