<svg width="595" height="510" viewBox="0 0 595 510" fill="none" xmlns="http://www.w3.org/2000/svg">
<g clip-path="url(#clip0_3_138)">
<path d="M183.958 103.18V127.166" stroke="#D0EAE7" stroke-width="6" stroke-miterlimit="10" stroke-linecap="round" stroke-linejoin="round"/>
<path d="M195.701 115.173H171.965" stroke="#D0EAE7" stroke-width="6" stroke-miterlimit="10" stroke-linecap="round" stroke-linejoin="round"/>
<path d="M86.0697 216.942V240.928" stroke="#D0EAE7" stroke-width="6" stroke-miterlimit="10" stroke-linecap="round" stroke-linejoin="round"/>
<path d="M98.0623 228.935H74.0771" stroke="#D0EAE7" stroke-width="6" stroke-miterlimit="10" stroke-linecap="round" stroke-linejoin="round"/>
<path d="M494.379 163.147V187.133" stroke="#D0EAE7" stroke-width="6" stroke-miterlimit="10" stroke-linecap="round" stroke-linejoin="round"/>
<path d="M506.372 175.14H482.386" stroke="#D0EAE7" stroke-width="6" stroke-miterlimit="10" stroke-linecap="round" stroke-linejoin="round"/>
<path d="M579.395 295.08V319.066" stroke="#D0EAE7" stroke-width="6" stroke-miterlimit="10" stroke-linecap="round" stroke-linejoin="round"/>
<path d="M591.387 307.073H567.652" stroke="#D0EAE7" stroke-width="6" stroke-miterlimit="10" stroke-linecap="round" stroke-linejoin="round"/>
</g>
<path d="M202.172 467.461L200.17 500.711H190.158L190.659 477.711L202.172 467.461Z" fill="#F58A07"/>
<path d="M169.885 504.086C169.885 504.086 169.51 495.211 190.409 493.836L190.283 499.836H203.298V504.086H169.885Z" fill="#67CCC1"/>
<path d="M236.086 470.961L238.464 500.711H248.1L247.474 477.711L236.086 470.961Z" fill="#F58A07"/>
<path d="M268.248 504.086C268.248 504.086 268.623 495.211 247.724 493.836L247.85 499.836H234.96V504.086H268.248Z" fill="#67CCC1"/>
<path d="M264.368 344.959C264.368 344.959 281.889 435.71 249.351 489.586H236.086L221.069 400.085L202.297 489.586H187.906C187.906 489.586 167.883 391.96 172.888 354.959C177.894 318.084 264.368 344.959 264.368 344.959Z" fill="#D0EAE7"/>
<path d="M242.844 451.086C248.976 454.836 255.608 457.086 262.241 457.961C259.238 469.211 254.983 479.961 249.226 489.586H236.086L227.701 439.586C232.332 443.836 237.337 447.711 242.844 451.086Z" fill="#9CC5C0"/>
<path d="M172.888 354.959C174.891 340.084 190.158 335.584 207.678 335.459C207.053 336.459 206.427 337.459 205.801 338.584C193.787 360.959 191.034 387.96 204.55 410.71C207.929 416.335 211.558 421.585 215.562 426.585L202.297 489.586H187.906C187.906 489.586 167.883 391.96 172.888 354.959Z" fill="#9CC5C0"/>
<path d="M266.621 360.334C266.621 360.334 216.063 385.335 172.138 372.585C172.138 372.585 149.236 286.708 193.913 268.833L188.907 256.583L224.448 258.458L223.446 267.333C223.446 267.333 258.111 287.958 266.621 360.334Z" fill="#F58A07"/>
<path d="M181.273 277.083C179.646 294.459 186.529 311.584 197.917 325.084C213.56 343.584 242.093 345.459 261.365 332.084C263.492 340.459 265.37 349.834 266.496 360.334C266.496 360.334 215.938 385.335 172.012 372.585C172.012 372.585 153.992 304.709 181.273 277.083Z" fill="#F58A07"/>
<path d="M279.886 434.46C279.886 434.46 264.118 443.336 242.093 445.211C242.093 445.211 241.342 328.334 223.447 267.333C223.447 267.333 250.728 262.208 266.621 313.334C266.621 313.334 285.518 351.834 279.886 434.46Z" fill="white"/>
<path d="M243.469 411.46C247.349 410.085 251.354 408.71 255.233 407.335C264.494 404.085 272.628 398.71 279.386 391.96C280.512 405.085 280.887 419.335 279.886 434.46C279.886 434.46 264.118 443.336 242.093 445.211C242.093 445.211 241.968 431.835 241.217 411.71C241.968 411.71 242.719 411.585 243.469 411.46Z" fill="#B3E0DB"/>
<path d="M193.787 268.833C193.787 268.833 217.815 316.209 216.313 448.586C216.313 448.586 190.033 448.836 169.259 438.211C169.384 438.211 139.725 275.333 193.787 268.833Z" fill="white"/>
<path d="M180.397 274.833C177.143 279.083 174.766 283.958 173.639 289.458C167.132 319.459 170.135 352.834 185.653 379.96C193.787 394.21 203.298 403.835 216.188 411.335C216.564 422.96 216.564 435.335 216.438 448.461C216.438 448.461 190.158 448.711 169.384 438.085C169.384 438.21 145.232 305.459 180.397 274.833Z" fill="#B3E0DB"/>
<path d="M248.225 316.834L247.975 337.209C247.975 337.209 177.143 363.834 167.758 356.209C158.372 348.584 152.365 296.084 180.397 274.833L194.163 300.459C194.163 300.459 183.526 319.584 189.157 326.959C194.538 334.459 248.225 316.834 248.225 316.834Z" fill="white"/>
<path d="M193.787 268.833C193.787 268.833 210.056 307.834 212.058 351.459L187.28 305.459L193.662 297.959L183.275 299.334L180.522 271.708C180.647 271.583 186.779 268.833 193.787 268.833Z" fill="#9CC5C0"/>
<path d="M223.447 267.333C223.447 267.333 227.326 264.958 233.959 268.708L245.597 292.208H237.087L242.093 299.709L237.087 348.959C237.087 349.084 231.331 299.584 223.447 267.333Z" fill="#9CC5C0"/>
<path d="M195.79 328.834C196.415 331.209 196.791 333.584 196.916 336.209C197.291 342.584 195.665 348.959 192.661 354.709C216.438 349.084 247.85 337.209 247.85 337.209L248.1 316.834C248.225 316.834 211.558 328.834 195.79 328.834Z" fill="white"/>
<path d="M173.639 349.084C170.26 349.084 163.503 349.084 161.876 343.584C163.378 349.709 165.38 354.334 167.758 356.209C170.886 358.709 180.898 357.459 192.786 354.584C210.557 350.334 232.707 342.709 242.719 339.084C244.345 338.459 245.597 337.959 246.598 337.709C247.099 337.584 247.349 337.459 247.599 337.334C247.724 337.334 247.724 337.209 247.849 337.209H247.975L252.23 326.584C242.844 328.209 189.908 348.834 173.639 349.084Z" fill="#D0EAE7"/>
<path d="M265.37 220.708C259.363 216.332 257.986 204.832 257.986 204.832L258.236 203.082C258.236 203.082 177.894 172.207 172.138 193.582C166.381 214.957 156.119 208.957 152.115 219.833C148.11 230.708 146.733 244.083 165.505 256.583C184.277 269.083 216.063 255.208 216.063 255.208C216.063 255.208 239.84 275.708 262.116 259.333C284.517 243.083 271.377 225.083 265.37 220.708Z" fill="#875730"/>
<path d="M152.115 219.833C156.119 208.957 166.381 214.957 172.138 193.582C174.891 183.332 194.789 185.082 214.812 189.707C213.685 192.082 212.809 194.707 212.058 197.332C206.052 220.833 220.693 248.583 245.472 253.583C253.606 255.208 261.74 254.958 269.249 252.833C267.497 254.958 265.119 257.083 262.241 259.208C239.965 275.583 216.188 255.083 216.188 255.083C216.188 255.083 184.402 269.083 165.63 256.458C146.733 244.083 148.11 230.833 152.115 219.833Z" fill="#664228"/>
<path d="M177.018 215.332C177.769 215.332 178.52 214.207 177.894 218.333C179.771 202.957 187.405 177.457 201.546 174.332C218.941 170.582 246.848 163.957 255.483 196.457C255.483 196.457 252.355 222.708 255.358 231.333C258.111 243.083 256.86 274.958 213.185 270.833C202.923 268.958 175.642 262.958 177.394 235.208C176.518 235.333 175.642 235.333 174.64 235.333C168.008 234.833 164.254 229.333 165.755 222.708C166.882 217.207 170.26 214.832 177.018 215.332Z" fill="#FFCCA6"/>
<path d="M177.018 215.332C177.644 215.332 178.395 214.457 178.019 217.332C180.147 201.957 187.655 177.457 201.546 174.457C215.312 171.457 235.711 166.707 247.85 181.082C224.698 178.582 202.297 191.332 196.165 215.082C190.283 237.833 203.924 264.708 227.326 270.833C223.196 271.333 218.441 271.333 213.06 270.833C202.798 268.958 175.516 262.958 177.268 235.208C176.392 235.333 175.516 235.333 174.515 235.333C167.883 234.833 164.128 229.333 165.63 222.708C166.882 217.207 170.26 214.832 177.018 215.332Z" fill="#F0B68E"/>
<path d="M224.948 245.083L234.084 242.458L226.45 225.708L224.948 245.083Z" fill="#D8A173"/>
<path d="M200.545 218.333C201.046 220.333 201.797 222.083 203.048 223.333C204.3 224.583 205.926 225.333 207.553 225.708C209.18 226.083 210.932 225.958 212.434 225.208C213.936 224.458 215.187 222.958 216.063 221.083C216.313 223.083 215.437 225.458 213.56 226.958C211.683 228.458 209.18 228.833 206.928 228.333C204.675 227.833 202.548 226.458 201.296 224.583C200.17 222.708 199.919 220.333 200.545 218.333Z" fill="#3A3A3A"/>
<path d="M233.707 225.444C234.425 227.358 235.383 228.793 236.701 229.75C238.018 230.707 239.575 231.066 241.251 231.066C242.808 231.066 244.485 230.587 245.802 229.63C247.119 228.674 248.197 227.238 248.915 225.444C249.275 227.358 248.676 229.63 247.119 231.186C245.682 232.741 243.407 233.698 241.251 233.698C239.096 233.698 236.82 232.86 235.383 231.305C233.946 229.63 233.347 227.358 233.707 225.444Z" fill="#3A3A3A"/>
<path d="M255.358 196.582C255.358 196.582 225.449 215.457 188.281 207.957L183.401 231.958C183.401 231.958 177.644 226.083 176.893 215.457C176.893 215.457 167.382 214.332 171.512 195.707C179.521 159.832 230.079 160.082 237.337 173.832C244.721 187.582 255.358 196.582 255.358 196.582Z" fill="#875730"/>
<path d="M171.637 195.582C175.391 178.957 188.156 170.082 201.671 166.707C199.419 182.207 205.676 198.707 217.314 209.082C208.554 210.082 198.668 210.082 188.281 207.957L183.401 231.958C183.401 231.958 177.644 226.083 176.893 215.457C177.018 215.332 167.382 214.207 171.637 195.582Z" fill="#664228"/>
<path d="M234.584 172.707C234.584 172.707 223.196 188.707 239.089 197.957C254.983 207.207 254.732 220.958 254.732 220.958C254.732 220.958 271.877 176.582 234.584 172.707Z" fill="#875730"/>
<path d="M168.508 221.333C168.884 220.583 169.51 219.958 170.386 219.708C171.262 219.458 172.263 219.958 172.888 220.458C173.514 221.083 174.015 221.583 174.515 222.458C175.016 223.208 175.016 224.458 174.515 225.208C174.14 226.083 173.514 226.583 172.888 227.208C172.263 227.708 171.762 228.208 171.512 228.708C171.387 228.958 171.387 229.083 171.637 229.333C171.762 229.583 172.012 229.833 172.388 230.083C173.014 230.583 173.639 230.958 174.265 231.333C173.514 231.208 172.763 230.958 172.012 230.708C171.637 230.583 171.262 230.333 170.886 229.958C170.511 229.583 170.26 228.958 170.511 228.458C170.886 227.458 171.512 226.958 172.012 226.458C172.513 225.958 173.014 225.333 173.264 224.833C173.514 224.333 173.514 223.708 173.264 223.208C173.014 222.583 172.513 221.958 172.138 221.458C171.637 220.958 171.136 220.583 170.511 220.583C169.76 220.458 169.009 220.833 168.508 221.333Z" fill="#7A8891"/>
<path d="M175.391 236.583C175.016 238.708 172.888 240.083 170.761 239.708C168.634 239.333 167.257 237.208 167.632 235.083C168.008 232.958 170.135 231.583 172.263 231.958C174.39 232.333 175.767 234.458 175.391 236.583Z" fill="white"/>
<path d="M228.953 247.208C231.205 248.458 233.333 249.833 235.335 251.333L236.336 252.083L235.085 252.333C232.957 252.833 230.83 253.208 228.577 253.583C226.45 253.958 224.197 254.208 222.07 254.333C224.197 253.583 226.325 253.083 228.452 252.583C230.58 252.083 232.707 251.708 234.96 251.333L234.709 252.333C232.707 250.583 230.705 248.958 228.953 247.208Z" fill="#DC724E"/>
<path d="M230.204 253.333L229.203 257.708" stroke="#DC724E" stroke-width="0.969" stroke-miterlimit="10"/>
<path d="M235.085 297.834L258.612 322.334" stroke="#5D5D5D" stroke-width="1.938" stroke-miterlimit="10"/>
<path d="M241.968 358.709L249.602 296.209H296.53L286.018 356.209L241.968 358.709Z" fill="#7A8891"/>
<path d="M260.864 299.834V292.959H283.515V297.834L260.864 299.834Z" fill="#828282"/>
<path d="M290.148 322.084C290.148 322.084 279.636 318.459 280.762 322.084C281.889 325.709 290.148 325.709 290.148 325.709C290.148 325.709 269.124 325.459 288.646 330.584C288.646 330.584 272.628 330.709 287.77 335.709C287.77 335.709 275.256 335.709 287.27 338.834C299.284 341.834 295.404 323.459 290.148 322.084Z" fill="#FFCCA6"/>
<path d="M487.417 395.995C491.743 395.415 495.508 391.844 496.36 387.573C496.451 387.15 496.505 386.756 496.531 386.324C496.928 381.221 493.428 376.489 488.856 374.96C488.866 375.128 488.839 375.326 488.85 375.495C488.807 377.029 488.703 378.522 488.534 380.006C487.166 379.25 485.525 379.025 483.931 379.678C484.105 378.161 484.213 376.635 484.256 375.101C484.265 375.035 484.274 374.969 484.25 374.899C484.263 374.8 484.249 374.664 484.262 374.566C483.405 374.717 482.568 374.97 481.713 375.356C478.391 376.911 475.475 379.895 475.079 383.524C474.875 385.506 475.373 387.483 476.199 389.27C478.15 393.589 482.614 396.645 487.417 395.995Z" fill="#D3D2D2"/>
<path d="M496.034 386.289C496.013 386.688 495.959 387.083 495.872 387.473C495.048 391.546 491.473 394.942 487.353 395.484C482.756 396.095 478.541 393.174 476.69 389.103C475.921 387.39 475.442 385.516 475.632 383.634C476.006 380.168 478.768 377.331 481.913 375.852C482.698 375.491 483.465 375.261 484.218 375.129C484.227 375.063 484.236 374.998 484.213 374.927C484.226 374.829 484.211 374.693 484.225 374.594C483.368 374.745 482.531 374.999 481.676 375.384C478.353 376.939 475.438 379.923 475.042 383.553C474.837 385.534 475.336 387.511 476.162 389.299C478.08 393.613 482.544 396.668 487.347 396.019C491.673 395.439 495.438 391.868 496.29 387.597C496.381 387.174 496.435 386.78 496.461 386.348C496.857 381.245 493.358 376.513 488.786 374.983C488.796 375.152 488.769 375.35 488.78 375.518C493.122 377.017 496.395 381.449 496.034 386.289Z" fill="#ADA5A0"/>
<path d="M486.738 391.18C489.121 390.87 491.195 388.91 491.654 386.528C491.686 386.298 491.717 386.068 491.749 385.837C491.946 383.42 490.522 381.115 488.501 380.001C487.133 379.245 485.492 379.021 483.898 379.673C483.791 379.726 483.688 379.745 483.613 379.802C481.791 380.658 480.198 382.282 479.989 384.296C479.873 385.386 480.161 386.463 480.593 387.46C481.637 389.847 484.116 391.525 486.738 391.18Z" fill="#ADA5A0"/>
<path d="M483.841 380.335C482.196 381.115 480.757 382.593 480.542 384.405C480.44 385.396 480.708 386.371 481.088 387.26C482.033 389.398 484.267 390.909 486.651 390.599C488.795 390.323 490.677 388.538 491.101 386.419C491.128 386.221 491.159 385.991 491.186 385.794C491.502 382.019 487.514 378.661 483.841 380.335Z" fill="#E7E5E5"/>
<path d="M474.513 339.978C477.536 340.86 480.142 342.589 481.923 345.21C483.927 348.164 484.342 351.971 484.672 355.432C485.415 363.203 484.686 370.973 483.996 378.716C483.722 381.692 488.318 382.321 488.591 379.344C489.388 370.578 490.166 361.709 489.057 352.951C488.585 349.068 487.644 345.189 485.311 341.956C483.114 338.943 479.911 336.697 476.339 335.673C475.143 335.375 473.865 335.669 473.324 336.935C472.848 337.975 473.321 339.647 474.513 339.978Z" fill="#7A8891"/>
<path d="M448.019 351.901C448.888 352.149 449.881 351.901 451.123 350.909C451.62 350.537 452.489 350.413 452.862 351.033C454.973 353.886 459.319 354.258 462.175 352.149C462.672 351.777 463.169 351.777 463.666 352.025C467.267 352.894 469.626 351.901 470.744 349.172C470.992 348.676 471.613 348.552 472.11 348.676C473.476 349.172 474.594 349.048 475.587 348.428C477.947 341.978 474.594 333.419 471.241 326.349C471.489 320.767 470.868 314.937 470.868 309.727C470.868 299.308 470.868 288.764 470.744 278.345C470.62 267.925 470.62 257.506 470.372 246.962C470.123 237.411 471.862 224.759 465.777 216.696C463.169 213.347 457.829 212.727 455.097 216.324C448.888 224.387 450.254 236.295 449.881 245.97C449.509 256.39 449.385 266.933 449.136 277.352C448.888 287.772 448.764 298.315 448.64 308.735C448.64 315.557 447.398 324.116 448.515 331.435C447.646 335.032 446.901 338.753 446.032 342.474C445.535 344.583 445.038 346.816 445.163 348.924C446.156 350.041 447.025 351.157 448.019 351.901Z" fill="#FFCCA6"/>
<path d="M384.562 451.383C383.692 438.482 364.568 439.103 364.444 452.003C364.444 461.926 363.202 471.725 362.83 481.649C362.457 493.805 382.699 496.038 384.313 483.757C385.803 473.09 385.307 462.05 384.562 451.383Z" fill="#FFCCA6"/>
<path d="M435.849 481.525C436.097 474.702 436.47 467.88 436.718 461.058C436.966 454.36 437.96 447.785 434.855 441.707C431.875 435.877 424.548 436.994 421.195 441.583C417.222 446.917 417.47 454.36 416.601 460.686C415.731 467.508 414.862 474.33 413.993 481.153C412.254 494.797 435.228 495.665 435.849 481.525Z" fill="#F0B68E"/>
<path d="M361.96 395.936C362.085 370.26 355.006 329.574 357.987 302.781C358.856 295.339 357.987 286.16 361.464 279.213C363.202 275.616 366.307 272.763 369.784 272.019H370.032C370.777 271.895 371.647 271.895 372.392 272.019H427.777C427.901 272.019 428.025 272.019 428.15 272.019C430.136 282.314 435.6 292.114 438.333 302.161C441.934 315.681 447.025 350.165 447.025 353.018C448.391 362.569 449.261 405.859 448.515 421.117C447.895 434.637 443.548 469.245 442.927 469.493C442.803 470.113 442.679 470.609 442.555 471.229H408.901C408.032 463.167 409.771 455.104 409.771 447.041C409.771 433.769 414.117 420.993 414.117 407.844C414.241 391.967 412.13 352.522 407.287 346.32C405.921 344.583 402.32 344.955 402.32 344.831H399.091C399.836 350.785 399.836 356.987 400.084 362.941C400.581 373.857 400.581 384.648 399.96 395.564C399.339 405.984 398.222 416.279 396.607 426.574C395.49 433.149 390.398 463.539 389.653 471.229H357.117C356.124 455.848 358.607 447.661 359.601 436.25C360.843 422.729 361.96 409.333 361.96 395.936Z" fill="#D0EAE7"/>
<path d="M379.47 357.111C384.934 356.491 390.522 356.615 395.986 357.731C397.352 357.979 398.843 358.352 400.209 358.724C400.084 354.134 399.96 349.421 399.339 344.831H402.568C402.568 344.955 406.169 344.583 407.535 346.32C409.15 348.304 410.516 354.01 411.633 361.329C413.496 360.212 415.731 357.979 417.346 357.235C419.705 355.995 422.313 355.003 424.921 354.382C430.633 352.894 436.594 352.894 442.431 353.762C444.045 354.01 445.783 354.382 447.398 354.754C447.274 354.134 447.274 353.514 447.149 353.018C447.149 350.165 442.058 315.557 438.457 302.161C435.725 291.989 430.385 282.314 428.274 272.019C428.15 272.019 428.025 272.019 427.901 272.019H372.516C371.647 271.895 370.902 271.895 370.156 272.019H369.908C366.431 272.639 363.326 275.616 361.588 279.213C358.111 286.16 358.98 295.339 358.111 302.781C356.248 319.775 358.359 342.474 360.098 363.437C365.934 359.964 372.64 357.979 379.47 357.111Z" fill="#9CC5C0"/>
<path d="M346.313 217.441C342.961 222.402 340.725 228.976 338.738 233.938C337.621 230.589 336.627 227.24 335.385 223.891C331.412 212.231 314.895 216.696 315.02 228.232C315.144 241.753 313.778 288.516 338.987 278.965C348.673 275.244 353.019 264.204 356.496 255.397C360.719 244.606 364.692 233.69 366.431 222.278C368.294 209.378 349.915 205.781 346.313 217.441Z" fill="#F0B68E"/>
<path d="M475.09 227.984C471.986 212.851 457.829 192.508 448.515 185.562C442.182 180.972 437.587 178.74 422.934 176.755C418.339 175.887 413.372 175.391 407.659 175.391C401.947 175.391 396.98 176.011 392.509 177.127C387.294 177.127 381.581 180.848 377.235 182.833C370.281 186.058 363.451 189.903 357.49 194.741C352.523 198.71 339.359 216.82 339.359 216.82C344.078 225.255 352.274 231.953 357.366 236.915C356 245.474 351.529 338.257 352.895 345.575H458.078C459.444 338.257 458.202 245.846 456.96 234.806C459.319 234.31 475.96 232.45 475.09 227.984Z" fill="#D0EAE7"/>
<path d="M475.09 227.984C474.718 226.247 474.221 224.511 473.6 222.774C468.012 225.255 461.927 226.868 455.966 228.356C456.091 230.961 456.339 233.566 456.463 236.171C456.712 237.163 456.836 238.279 457.084 239.396C456.96 237.411 456.836 235.799 456.712 234.806C459.319 234.31 475.96 232.45 475.09 227.984Z" fill="white"/>
<path d="M357.738 225.999C355.627 223.27 351.405 221.038 348.797 218.433C346.686 216.324 344.823 214.091 343.085 211.735C340.849 214.712 339.235 216.944 339.235 216.944C343.83 225.255 352.026 231.953 357.117 236.915C357.987 233.194 359.353 228.108 357.738 225.999Z" fill="white"/>
<path d="M421.94 204.54C429.019 197.346 435.352 189.655 439.45 180.476C435.6 178.988 430.633 177.871 422.81 176.755C418.215 175.887 413.248 175.391 407.535 175.391C401.823 175.391 396.856 176.011 392.385 177.127C388.039 177.127 383.196 179.732 379.346 181.717C379.346 183.577 379.718 185.562 380.339 187.547C388.163 198.958 394.869 211.363 402.444 223.022C409.522 217.565 415.856 210.866 421.94 204.54Z" fill="white"/>
<path d="M421.94 192.632L405.176 208.262L390.522 192.508C389.032 190.896 388.287 188.911 388.287 186.802V157.156H424.672V187.423C424.672 189.779 423.679 191.02 421.94 192.632Z" fill="#FFCCA6"/>
<path d="M408.156 179.484C412.875 179.98 418.96 181.096 424.672 182.833V157.156H388.287V180.724C394.62 178.864 401.699 178.74 408.156 179.484Z" fill="#F0B68E"/>
<path d="M373.137 109.525C372.516 106.796 371.398 104.067 369.536 102.702C368.666 101.834 367.424 101.338 366.183 101.71C366.058 101.71 366.058 101.71 365.934 101.71C359.104 102.206 359.353 110.517 361.96 114.858C363.326 117.215 365.438 120.316 368.294 121.184C370.529 121.805 372.888 120.688 373.634 118.456C374.503 115.851 374.379 112.378 373.137 109.525Z" fill="#F0B68E"/>
<path d="M453.607 110.889C450.627 110.517 447.77 113.866 445.908 115.603C442.927 118.456 440.816 121.929 439.326 125.774C439.202 126.146 439.326 126.518 439.574 126.89C439.45 127.511 439.326 128.007 439.326 128.627C439.823 135.697 452.117 127.387 453.979 125.402C456.091 123.169 457.705 120.316 457.705 117.091C457.705 114.61 456.339 111.261 453.607 110.889Z" fill="#F0B68E"/>
<path d="M383.071 82.3595C379.222 81.9874 373.509 82.6076 371.026 86.2048C370.405 82.8557 369.784 79.5066 368.915 76.2815C368.666 75.2891 367.3 75.7853 367.3 76.6536C367.3 86.825 369.287 97.1204 370.653 107.292C370.902 109.028 373.013 109.276 373.882 107.912C378.104 100.47 381.581 92.903 384.562 84.9644C384.686 83.848 384.313 82.4835 383.071 82.3595ZM375 87.1971C376.241 86.0808 378.477 85.7086 380.339 85.7086C379.843 86.949 379.346 88.1895 378.849 89.3058C378.849 89.0577 378.849 88.8097 378.725 88.5616C378.725 88.4375 378.601 88.3135 378.601 88.3135C378.228 87.5692 377.359 86.825 376.366 87.3212C374.751 88.0654 374.627 89.4299 374.006 91.1664L373.385 92.903C373.385 90.7943 373.137 88.8097 375 87.1971ZM377.607 90.7943C377.732 90.7943 377.856 90.6703 377.856 90.6703C377.98 90.6703 377.98 90.5462 378.104 90.5462C378.228 90.4222 378.352 90.4222 378.477 90.2982C377.856 91.9107 377.111 93.3992 376.366 95.0117C376.738 93.6473 377.235 91.7867 377.607 90.7943Z" fill="#875730"/>
<path d="M442.431 133.465C441.934 121.433 440.568 109.401 438.084 97.7406C435.973 88.1894 431.875 78.018 422.189 73.9247C415.11 71.0717 406.79 71.6919 399.215 73.9247C397.725 74.1728 396.111 74.6689 394.745 75.4132C393.13 76.0334 391.516 76.6536 390.15 77.3978C389.032 77.894 388.784 79.0104 389.032 79.8787C387.79 81.1191 386.673 82.4835 385.803 83.7239C379.346 92.6549 374.13 102.702 370.405 112.998C364.196 129.867 357.987 157.156 377.856 167.576C387.418 172.662 401.078 172.414 411.509 171.421C420.202 170.553 429.888 168.692 436.097 161.87C443.176 154.304 442.927 143.14 442.431 133.465Z" fill="#FFCCA6"/>
<path d="M442.431 131.232C440.568 132.472 438.581 133.589 436.594 134.457C431.999 136.317 427.032 137.434 422.065 136.814C416.973 136.193 412.254 133.837 407.411 132.348C396.483 128.999 384.686 136.69 374.254 131.728C371.15 130.239 368.542 127.883 366.679 125.03C357.117 142.768 360.346 163.731 375.869 172.041C385.431 177.127 403.686 175.391 414.241 174.398C422.934 173.53 433.117 172.041 439.326 165.219C446.28 157.653 442.927 143.14 442.555 133.465C442.431 132.72 442.431 131.976 442.431 131.232Z" fill="#875730"/>
<path d="M444.169 68.2187C439.202 65.4898 433.614 66.3581 428.274 67.5985C420.202 55.4425 404.803 48 390.274 48C384.686 48 377.98 49.6125 374.875 54.6982C371.771 59.908 373.634 65.3658 376.614 70.0794C375.248 69.7072 374.006 69.5832 372.516 69.9553C369.784 70.6996 367.549 72.5602 366.058 75.041C363.078 80.0027 364.32 85.8326 368.294 89.926C378.973 100.842 394.869 94.1434 406.293 87.1971C407.287 89.4298 409.895 91.1664 412.751 91.2904C417.842 91.5385 423.058 89.0577 427.156 85.8326C427.156 97.6166 432.248 108.408 437.96 118.58C439.202 119.82 440.568 120.936 441.81 122.053C442.306 118.952 443.051 115.975 444.045 112.998C444.79 109.4 445.287 105.803 446.032 102.206C447.398 94.6396 449.633 86.5769 450.006 78.8863C450.254 74.2968 448.267 70.4515 444.169 68.2187Z" fill="#875730"/>
<path d="M406.169 112.378C405.797 109.773 405.797 106.548 402.941 105.555C402.816 105.555 402.816 105.555 402.692 105.555C402.444 104.935 401.326 104.687 400.954 105.431C398.346 110.269 395.117 114.486 390.15 116.967C387.045 118.456 382.575 118.952 381.084 122.549C378.352 128.999 386.548 128.751 391.392 127.263C391.764 128.503 392.758 129.495 394.124 129.867C396.483 130.488 398.346 128.999 399.588 127.138C401.947 128.503 405.548 127.263 406.666 124.41C408.156 120.688 406.666 115.975 406.169 112.378Z" fill="#F9A284"/>
<path d="M424.176 107.664C425.914 105.431 425.666 102.082 425.169 99.3531C424.921 98.3607 423.927 97.7405 423.058 98.3607C422.561 98.7329 422.189 98.981 421.816 99.3531L421.94 98.1127C422.065 96.9963 420.823 96.004 419.829 96.7482C418.463 97.8646 417.097 98.981 415.607 99.9733C415.483 98.7329 415.359 97.6165 415.11 96.3761C414.862 95.3838 413.496 95.2597 412.875 96.004C411.137 98.1127 409.646 100.842 409.522 103.695C414.738 104.067 419.581 105.183 424.176 107.664Z" fill="#875730"/>
<path d="M392.509 104.687C393.13 101.09 391.392 97.4925 389.156 94.7636C388.535 94.0194 387.169 94.1434 386.921 95.1357C386.673 96.3761 386.424 97.4925 386.424 98.7329C385.058 97.6166 383.692 96.5002 382.202 95.5078C381.209 94.7636 379.967 95.7559 380.091 96.8723L380.215 98.1127C379.843 97.7406 379.346 97.4925 378.973 97.1204C378.104 96.5002 376.986 97.1204 376.862 98.1127C376.366 100.842 375.993 104.439 377.98 106.548C382.326 104.687 387.666 103.943 392.509 104.687Z" fill="#875730"/>
<path d="M399.866 149.346C403.742 146.735 407.981 148.017 408.832 153.123C408.873 153.384 409.217 153.498 409.346 153.108C410.458 150.137 408.683 147.817 407.092 146.733C404.945 145.279 402.149 145.527 399.596 147.216C398.595 147.935 398.864 150.065 399.866 149.346Z" fill="#FFCCA6"/>
<path d="M426.038 119.944C422.189 118.332 417.47 118.207 413.869 120.44C410.764 122.301 412.751 127.635 416.352 127.138C418.588 126.89 420.45 126.394 422.686 127.138C424.672 127.883 427.032 127.262 428.025 125.154C428.895 123.293 428.025 120.812 426.038 119.944Z" fill="#FFAF97"/>
<path d="M378.849 119.572C378.228 118.332 376.862 117.959 375.496 118.207C375.124 118.332 374.875 118.456 374.627 118.58C374.503 118.704 374.254 118.704 374.13 118.828C374.13 118.828 374.006 118.828 374.006 118.952C373.758 119.076 373.634 119.076 373.385 119.2C373.261 119.2 372.143 119.696 372.64 119.572C371.647 119.944 371.15 121.184 371.895 122.053C372.64 122.921 373.385 123.417 374.503 123.665C375.745 123.913 376.986 123.789 378.104 123.045C379.222 122.301 379.47 120.688 378.849 119.572Z" fill="#FFAF97"/>
<path d="M326.444 265.072C327.189 265.569 327.934 265.817 328.804 266.065H345.817C348.176 265.941 350.536 265.817 352.771 265.941C353.019 265.941 353.392 265.941 353.64 266.065H390.026C384.81 238.9 385.679 238.28 382.45 217.192H299C303.222 224.635 307.569 231.829 311.667 239.272C317.131 247.583 322.222 256.141 326.444 265.072Z" fill="#299B8E"/>
<path d="M311.418 247.955C310.052 250.436 311.046 253.04 313.529 254.281C313.281 255.273 313.405 256.017 313.902 256.638C314.026 256.762 314.026 256.762 314.15 256.762C321.477 257.258 331.039 260.359 336.13 254.405C336.006 253.909 335.882 252.792 335.51 252.42C335.137 251.924 334.516 251.552 333.895 251.428C333.895 251.428 333.895 251.428 334.019 251.428C334.144 251.428 334.268 251.304 334.392 251.18C336.255 250.684 337.869 249.567 338.242 247.459C338.366 246.466 337.993 245.35 337.248 244.606C337.124 244.358 337.124 244.109 337.372 243.985C338.862 243.241 339.98 242.001 339.856 239.892C339.732 238.528 338.987 237.411 337.993 236.667C337.745 236.543 337.745 236.295 337.869 236.047C337.993 235.923 338.117 235.799 338.117 235.675C339.732 233.566 338.117 230.465 335.51 230.341C329.797 229.845 323.34 230.217 320.732 230.465C320.484 230.465 320.98 230.465 320.732 230.465C321.725 228.852 322.595 227.24 323.34 225.503C324.954 221.906 320.856 217.565 317.503 220.79C314.771 223.395 312.288 226.372 310.176 229.473C309.928 229.969 309.555 230.341 309.307 230.837C308.81 231.581 308.438 232.326 307.941 233.07C307.941 233.194 307.941 233.318 308.065 233.442C307.444 235.675 307.817 237.783 309.059 239.52C309.059 240.016 309.059 240.388 309.059 240.884C307.817 243.613 309.555 246.094 311.418 247.955Z" fill="#FFCCA6"/>
<path d="M446.28 231.085C445.783 231.085 445.411 231.085 444.914 231.085C440.195 231.085 435.476 231.085 430.757 231.209C430.633 231.209 430.385 231.209 430.261 231.333C430.509 232.574 430.509 233.69 430.509 234.93C430.509 235.178 430.509 235.551 430.509 235.799C434.731 235.923 438.953 235.923 443.176 235.923C444.169 235.923 445.411 235.923 446.529 235.799C446.653 234.186 446.529 232.698 446.28 231.085Z" fill="white"/>
<path d="M390.026 266.065C384.81 247.831 382.45 217.192 382.45 217.192L383.071 216.448L391.267 263.336L390.026 266.065Z" fill="#237269"/>
<path d="M299 217.192H382.45L383.196 216.448H300.49L299 217.192Z" fill="#4796C6"/>
<path d="M467.515 500.007C467.267 499.511 466.894 498.89 466.149 498.27C464.783 497.03 463.045 498.27 461.182 497.65C459.195 497.402 457.208 497.278 455.594 497.154C452.365 496.782 450.13 495.665 448.391 493.929C443.424 490.952 439.326 485.742 436.718 480.78C433.614 482.145 429.64 481.773 426.535 481.773C422.437 481.649 418.712 480.904 414.986 479.168C414.738 479.044 414.49 479.044 414.241 479.168C413.993 479.044 413.62 479.168 413.62 479.416C412.378 488.719 412.627 495.541 412.627 503.108C412.627 505.465 412.627 505.837 412.627 508.069C418.091 507.821 421.071 508.194 426.411 507.945C426.535 506.953 426.038 505.961 426.535 504.968C426.908 504.1 428.522 507.821 429.267 507.821C443.3 508.318 461.555 508.69 466.646 504.348C467.515 502.86 467.888 501.371 467.515 500.007Z" fill="#374249"/>
<path d="M424.3 504.844C425.418 504.472 426.411 504.224 427.529 504.348C430.385 504.472 433.241 504.969 436.097 505.341C438.084 505.341 440.195 505.465 442.058 505.341C445.908 505.341 449.757 505.341 453.731 505.341C455.345 505.217 457.084 505.217 458.823 505.217C461.555 504.596 464.038 503.728 466.149 502.116C466.77 500.875 466.77 499.635 466.398 498.394C465.901 497.898 465.404 497.402 464.908 497.03C463.417 496.038 461.679 495.417 459.94 494.797C457.953 494.549 456.091 494.425 454.6 494.301C451.372 493.929 449.261 492.812 447.646 491.2C442.803 488.223 438.829 483.261 436.346 478.424C433.365 479.788 429.391 479.416 426.411 479.292C422.437 479.168 418.836 478.548 415.235 476.811C414.986 476.687 414.738 476.687 414.489 476.811C414.241 476.687 413.869 476.811 413.869 477.059C412.751 486.114 412.875 492.688 412.875 500.007C412.875 502.24 412.875 503.108 412.875 504.72C416.476 504.596 420.326 504.72 424.3 504.844Z" fill="#31BBAC"/>
<path d="M412.751 490.456C412.627 493.681 412.751 496.782 412.751 500.007C412.751 502.24 412.751 503.108 412.751 504.721C416.476 504.596 420.326 504.72 424.3 504.845C425.045 504.596 425.666 504.472 426.411 504.348C424.797 497.154 420.45 490.828 412.751 490.456Z" fill="#299B8E"/>
<path d="M466.274 498.27C465.777 497.774 465.28 497.278 464.783 496.906C463.293 495.913 461.555 495.293 459.816 494.673C457.829 494.425 455.966 494.301 454.476 494.177C454.352 494.177 454.104 494.177 453.979 494.053C452.862 495.169 452.241 497.154 451.744 498.518C451.123 500.627 451.123 502.984 451.123 505.217C451.993 505.217 452.862 505.217 453.731 505.217C455.345 505.093 457.084 505.093 458.823 505.093C461.555 504.472 464.038 503.604 466.149 501.992C466.646 500.751 466.646 499.511 466.274 498.27Z" fill="#299B8E"/>
<path d="M438.581 482.641C437.215 482.269 435.476 483.137 434.234 483.757C433.241 484.254 431.751 484.998 431.999 486.362C432.123 486.61 432.496 486.859 432.744 486.734C433.738 486.238 434.483 485.246 435.6 484.75C436.594 484.254 437.836 484.13 438.829 483.509C439.202 483.261 438.953 482.641 438.581 482.641Z" fill="#3E4F5B"/>
<path d="M440.816 485.494C439.45 485.618 438.208 486.238 437.215 487.231C436.346 487.975 435.228 488.967 435.104 490.208C435.104 490.456 435.352 490.704 435.6 490.58C436.47 490.332 437.215 489.339 437.96 488.843C438.953 488.099 439.947 487.479 441.189 487.355C442.058 487.107 441.934 485.37 440.816 485.494Z" fill="#3E4F5B"/>
<path d="M443.424 488.471C442.306 488.967 441.437 489.959 440.568 490.828C439.823 491.572 438.705 492.564 438.705 493.557C438.705 493.681 438.829 493.805 438.953 493.805C439.823 493.681 440.568 492.688 441.189 492.068C441.934 491.324 442.927 490.332 443.921 489.835C444.914 489.587 444.293 487.975 443.424 488.471Z" fill="#3E4F5B"/>
<path d="M448.267 492.068C446.777 492.316 445.535 492.937 444.293 493.805C443.424 494.425 441.934 495.541 441.934 496.906C441.934 497.03 442.058 497.278 442.306 497.154C443.3 496.906 443.921 495.789 444.79 495.169C445.783 494.301 447.149 493.433 448.391 493.433C449.261 493.433 449.136 491.944 448.267 492.068Z" fill="#3E4F5B"/>
<path d="M416.352 501.867C416.104 501.371 415.731 500.751 414.986 500.131C413.62 498.89 411.882 500.131 410.019 499.511C408.032 499.262 406.045 499.138 404.431 499.014C401.202 498.642 398.967 497.526 397.228 495.789C392.261 492.812 388.163 487.603 385.555 482.641C382.45 484.005 378.477 483.633 375.372 483.633C371.274 483.509 367.549 482.765 363.823 481.028C363.575 480.904 363.326 480.904 363.078 481.028C362.83 480.904 362.457 481.028 362.457 481.276C361.215 490.58 361.464 497.402 361.464 504.968C361.464 507.325 361.464 507.697 361.464 509.93C366.928 509.682 369.908 510.054 375.248 509.806C375.372 508.814 374.875 507.821 375.372 506.829C375.745 505.961 377.359 509.682 378.104 509.682C392.137 510.178 410.392 510.55 415.483 506.209C416.228 504.844 416.725 503.232 416.352 501.867Z" fill="#3E4F5B"/>
<path d="M373.013 506.705C374.13 506.333 375.124 506.085 376.241 506.209C379.098 506.333 381.954 506.829 384.81 507.201C386.797 507.201 388.908 507.325 390.771 507.201C394.62 507.201 398.47 507.201 402.444 507.201C404.058 507.077 405.797 507.077 407.535 507.077C410.267 506.457 412.751 505.589 414.862 503.976C415.483 502.736 415.483 501.495 415.11 500.255C414.614 499.759 414.117 499.262 413.62 498.89C412.13 497.898 410.391 497.278 408.653 496.658C406.666 496.41 404.803 496.285 403.313 496.161C400.084 495.789 397.973 494.673 396.359 493.06C391.516 490.083 387.542 485.122 385.058 480.284C382.078 481.649 378.104 481.276 375.124 481.152C371.15 481.028 367.549 480.408 363.947 478.672C363.699 478.548 363.451 478.548 363.202 478.672C362.954 478.548 362.581 478.672 362.581 478.92C361.464 487.975 361.588 494.549 361.588 501.867C361.588 504.1 361.588 504.968 361.588 506.581C365.189 506.457 369.163 506.581 373.013 506.705Z" fill="#31BBAC"/>
<path d="M361.464 492.316C361.34 495.541 361.464 498.642 361.464 501.867C361.464 504.1 361.464 504.968 361.464 506.581C365.189 506.457 369.039 506.581 373.013 506.705C373.758 506.457 374.379 506.333 375.124 506.209C373.634 499.138 369.287 492.688 361.464 492.316Z" fill="#299B8E"/>
<path d="M414.986 500.131C414.49 499.635 413.993 499.138 413.496 498.766C412.006 497.774 410.267 497.154 408.529 496.534C406.542 496.286 404.679 496.161 403.189 496.037C403.065 496.037 402.816 496.037 402.692 495.913C401.575 497.03 400.954 499.014 400.457 500.379C399.836 502.488 399.836 504.844 399.836 507.077C400.705 507.077 401.575 507.077 402.444 507.077C404.058 506.953 405.797 506.953 407.535 506.953C410.267 506.333 412.751 505.465 414.862 503.852C415.359 502.612 415.359 501.371 414.986 500.131Z" fill="#299B8E"/>
<path d="M387.418 484.502C386.052 484.129 384.313 484.998 383.071 485.618C382.078 486.114 380.588 486.858 380.836 488.223C380.96 488.471 381.333 488.719 381.581 488.595C382.575 488.099 383.32 487.106 384.437 486.61C385.431 486.114 386.673 485.99 387.666 485.37C387.915 485.122 387.666 484.626 387.418 484.502Z" fill="#3E4F5B"/>
<path d="M389.653 487.355C388.287 487.479 387.045 488.099 386.052 489.091C385.183 489.835 384.065 490.828 383.941 492.068C383.941 492.316 384.189 492.564 384.437 492.44C385.307 492.192 386.052 491.2 386.797 490.704C387.79 489.959 388.784 489.339 390.026 489.215C390.895 488.967 390.647 487.23 389.653 487.355Z" fill="#3E4F5B"/>
<path d="M392.137 490.332C391.019 490.828 390.15 491.82 389.281 492.688C388.535 493.433 387.418 494.425 387.418 495.417C387.418 495.541 387.542 495.665 387.666 495.665C388.535 495.541 389.281 494.549 389.901 493.929C390.647 493.185 391.64 492.192 392.633 491.696C393.627 491.448 393.13 489.959 392.137 490.332Z" fill="#3E4F5B"/>
<path d="M396.98 493.929C395.49 494.177 394.248 494.797 393.006 495.665C392.137 496.286 390.647 497.402 390.647 498.766C390.647 498.89 390.771 499.138 391.019 499.014C392.013 498.766 392.633 497.65 393.503 497.03C394.496 496.161 395.862 495.293 397.104 495.293C397.973 495.293 397.849 493.805 396.98 493.929Z" fill="#3E4F5B"/>
<ellipse cx="384.032" cy="113.304" rx="2.70456" ry="3.94917" transform="rotate(12.2444 384.032 113.304)" fill="#3A3A3A"/>
<ellipse cx="417.113" cy="114.097" rx="2.70456" ry="3.94917" transform="rotate(12.2444 417.113 114.097)" fill="#3A3A3A"/>
<path d="M534.236 487.852C534.297 485.45 533.721 483.06 532.892 480.803C531.764 477.803 530.137 475.035 528.351 472.446C525.983 468.974 523.21 465.782 520.311 462.774C520.254 462.699 520.193 462.657 520.136 462.582C520.387 462.215 520.497 461.66 520.243 460.822C519.895 459.703 514.498 454.912 512.85 453.515C510.933 451.88 508.951 450.236 506.83 448.874C495.914 441.654 484.013 435.272 476.537 438.837C475.39 436.47 473.378 434.554 471.218 432.986C468.508 431.041 465.58 429.469 462.991 427.373C462.963 427.336 462.93 427.332 462.902 427.294C462.751 427.173 462.638 427.024 462.487 426.903C462.223 426.632 461.959 426.362 461.695 426.091C461.2 425.554 460.71 424.985 460.285 424.425C460.058 424.126 459.832 423.827 459.609 423.495C459.581 423.458 459.553 423.42 459.524 423.383C459.444 423.238 459.331 423.089 459.25 422.944C458.872 422.289 458.493 421.634 458.152 420.951C457.839 420.306 457.53 419.627 457.292 418.925C457.244 418.784 457.168 418.607 457.12 418.466C457.092 418.429 457.068 418.359 457.073 418.326C456.986 417.979 456.867 417.628 456.748 417.277C456.342 415.848 456.075 414.371 455.978 412.885C455.987 412.819 455.963 412.749 455.972 412.683C455.957 412.547 455.942 412.411 455.96 412.279C455.944 411.909 455.965 411.51 455.949 411.139C455.954 410.37 456.02 409.642 456.123 408.886C456.173 408.524 456.218 408.195 456.267 407.834C456.276 407.768 456.281 407.735 456.29 407.669C456.35 407.477 456.376 407.279 456.403 407.082C456.572 406.335 456.807 405.597 457.07 404.896C457.185 404.543 457.333 404.195 457.481 403.847C457.527 403.753 457.935 402.971 457.958 402.807C457.911 402.901 457.772 403.184 457.911 402.901C457.916 402.868 457.958 402.807 457.962 402.774C457.967 402.741 458.009 402.68 458.046 402.652C458.138 402.463 458.227 402.308 458.319 402.12C458.366 402.026 458.407 401.964 458.454 401.87C458.461 401.57 458.567 401.283 458.702 401.033C458.687 400.897 458.677 400.728 458.699 400.564C459.003 398.094 459.218 395.545 459.658 393.06C455.342 396.991 452.398 402.382 451.57 408.196C450.642 414.734 452.532 421.456 456.283 426.791C458.187 429.496 460.631 431.672 463.364 433.452C464.836 434.424 466.35 435.334 467.822 436.306C468.556 436.808 469.285 437.343 469.944 437.902C470.005 437.944 470.034 437.981 470.095 438.023C470.213 438.14 470.363 438.261 470.481 438.378C470.806 438.69 471.099 438.998 471.354 439.334C471.467 439.483 471.585 439.6 471.698 439.75C471.755 439.824 471.811 439.899 471.868 439.974C471.925 440.048 472.053 440.334 471.896 440.011C471.744 439.655 471.977 440.156 472.029 440.264C472.138 440.446 472.218 440.591 472.327 440.773C472.403 440.951 472.512 441.133 472.588 441.311C472.64 441.419 472.664 441.489 472.683 441.592C472.807 441.911 472.635 441.452 472.635 441.452C472.701 441.461 472.759 441.77 472.813 442.112C468.297 448.729 472.975 460.487 478.458 471.987C479.584 474.753 481.169 477.347 482.795 479.881C483.982 481.717 487.98 487.689 489.047 488.204C489.521 488.402 489.878 488.485 490.211 488.497C492.632 491.574 495.198 494.571 498.039 497.27C500.437 499.54 502.984 501.697 505.833 503.359C507.968 504.622 510.302 505.645 512.755 506.047C514.65 506.373 516.64 506.243 518.445 505.519C519.469 505.123 520.425 504.484 521.26 503.761C521.566 503.97 521.88 504.113 522.171 504.187C523.593 504.549 523.897 503.552 524.988 501.926C526.122 500.239 525.188 499.241 524.402 498.631C523.616 498.021 522.065 497.876 521.293 498.876C520.525 499.842 520.07 500.483 519.662 501.265C519.435 501.703 519.663 502.236 520.092 502.764C519.98 502.849 519.864 502.967 519.752 503.052C519.677 503.109 519.602 503.166 519.528 503.222C519.453 503.279 519.337 503.397 519.267 503.421C519.267 503.421 519.449 503.312 519.341 503.364C519.308 503.36 519.304 503.393 519.271 503.388C519.234 503.417 519.196 503.445 519.159 503.473C519.084 503.53 518.977 503.582 518.87 503.635C518.687 503.744 518.51 503.82 518.328 503.929C518.15 504.005 517.935 504.11 517.758 504.186C517.655 504.205 517.58 504.262 517.477 504.282C517.44 504.31 517.374 504.301 517.337 504.329C516.92 504.44 516.504 504.55 516.097 504.595C515.891 504.634 515.656 504.635 515.451 504.674C515.451 504.674 515.451 504.674 515.418 504.67C515.385 504.665 515.385 504.665 515.352 504.661C515.319 504.656 515.319 504.656 515.319 504.656L515.286 504.652C515.183 504.671 515.052 504.653 514.949 504.673C514.481 504.676 514.017 504.646 513.524 504.578C513.295 504.547 513.032 504.511 512.802 504.479C512.737 504.471 512.671 504.462 512.605 504.453C512.605 504.453 512.605 504.453 512.572 504.448C512.441 504.43 512.314 504.379 512.15 504.357C511.634 504.219 511.118 504.082 510.606 503.911C510.062 503.736 509.526 503.496 508.991 503.255C508.831 503.2 508.709 503.116 508.549 503.061C508.488 503.019 508.455 503.014 508.394 502.972C508.488 503.019 508.3 502.926 508.239 502.884C507.957 502.745 507.675 502.606 507.397 502.434C506.124 501.724 504.924 500.958 503.771 500.097C503.132 499.641 502.501 499.119 501.898 498.635C501.569 498.355 501.239 498.076 500.909 497.796C500.792 497.68 500.881 497.759 500.909 497.796C500.881 497.759 500.82 497.717 500.792 497.68C500.702 497.601 500.613 497.521 500.523 497.442C500.344 497.284 500.198 497.13 500.019 496.971C496.957 494.175 494.208 491.053 491.678 487.793C491.621 487.718 491.564 487.644 491.475 487.564C491.799 486.905 491.808 486.103 491.808 486.103C491.808 486.103 488.211 481.358 486.826 479.26C485.053 476.572 483.252 473.848 482.054 470.871C480.857 467.894 478.163 459.957 485.986 453.123C493.809 446.289 501.289 450.025 504.082 451.613C506.874 453.2 509.323 455.343 511.739 457.482C513.622 459.113 517.826 463.338 517.826 463.338C517.826 463.338 518.187 463.387 518.66 463.352C521.389 466.136 523.997 469.071 526.274 472.229C526.557 472.603 526.808 472.972 527.058 473.341C527.167 473.523 527.28 473.673 527.389 473.855C527.441 473.963 527.531 474.042 527.583 474.15C527.611 474.187 527.639 474.224 527.668 474.262C527.668 474.262 527.668 474.262 527.663 474.295C527.663 474.295 527.663 474.295 527.692 474.332C528.164 475.033 528.604 475.729 529.006 476.454C529.768 477.731 530.455 479.064 531.035 480.449C531.287 481.053 531.534 481.689 531.748 482.321C531.777 482.359 531.844 482.602 531.772 482.392C531.796 482.462 531.82 482.532 531.844 482.602C531.891 482.743 531.935 482.916 531.982 483.057C532.078 483.338 532.136 483.647 532.231 483.928C532.356 484.481 532.481 485.034 532.573 485.582C532.603 485.854 532.633 486.126 532.662 486.398C532.682 486.501 532.696 486.637 532.683 486.736L532.678 486.769C532.669 486.835 532.693 486.905 532.684 486.971C532.715 487.477 532.685 487.942 532.651 488.439C532.619 488.67 532.62 488.904 532.589 489.134C532.576 489.233 532.558 489.364 532.544 489.463C532.54 489.496 532.493 489.59 532.522 489.627L532.517 489.66C532.426 490.083 532.302 490.502 532.149 490.883C532.09 491.075 531.997 491.264 531.9 491.485C531.895 491.518 531.853 491.579 531.849 491.612C531.803 491.706 531.756 491.8 531.71 491.894C531.529 492.238 531.278 492.605 531.037 492.907C530.957 492.997 530.911 493.091 530.836 493.148C530.799 493.176 530.762 493.205 530.753 493.27C530.753 493.27 530.753 493.27 530.748 493.303C530.627 493.454 530.474 493.601 530.357 493.719C530.241 493.837 530.129 493.922 530.017 494.007C529.583 493.512 529.052 493.239 528.598 493.378C527.756 493.664 527.07 494.039 526.015 494.665C524.926 495.287 524.846 496.85 525.362 497.724C525.878 498.598 526.737 499.654 528.531 498.76C530.292 497.862 531.313 497.734 531.145 496.271C531.115 495.999 530.996 495.648 530.84 495.325C531.52 494.748 532.149 494.064 532.655 493.296C533.681 491.661 534.209 489.758 534.236 487.852ZM483.585 450.384C480.056 453.451 478.185 456.377 477.254 459.029C475.468 453.259 474.234 446.392 477.31 443.699C480.35 441.033 487.005 442.981 492.562 445.382C489.937 445.994 486.928 447.458 483.585 450.384Z" fill="#7A8891"/>
<path d="M515.225 504.61C515.159 504.601 515.094 504.592 515.122 504.629C515.159 504.601 515.192 504.605 515.225 504.61Z" fill="#504842"/>
<path d="M490.093 488.38C492.51 491.49 495.08 494.454 497.884 497.182C500.249 499.447 502.829 501.609 505.678 503.271C507.813 504.534 510.147 505.556 512.6 505.959C514.495 506.285 516.485 506.155 518.285 505.464C519.309 505.068 520.261 504.461 521.1 503.705C520.668 503.445 520.249 503.086 519.937 502.676C519.825 502.761 519.709 502.879 519.597 502.964C519.522 503.021 519.447 503.077 519.373 503.134C519.298 503.191 519.182 503.309 519.111 503.333C519.111 503.333 519.294 503.224 519.186 503.276C519.153 503.272 519.149 503.304 519.116 503.3C519.079 503.328 519.041 503.357 519.004 503.385C518.929 503.442 518.822 503.494 518.714 503.547C518.532 503.656 518.355 503.732 518.173 503.841C517.995 503.917 517.78 504.022 517.602 504.098C517.5 504.117 517.425 504.174 517.322 504.193C517.285 504.222 517.219 504.213 517.182 504.241C516.765 504.352 516.349 504.462 515.942 504.507C515.736 504.546 515.501 504.547 515.295 504.586C515.295 504.586 515.295 504.586 515.263 504.582C515.23 504.577 515.23 504.577 515.197 504.573C515.164 504.568 515.164 504.568 515.164 504.568L515.131 504.564C515.028 504.583 514.897 504.565 514.794 504.584C514.326 504.587 513.862 504.557 513.369 504.49C513.139 504.459 512.877 504.423 512.647 504.391C512.581 504.382 512.516 504.373 512.45 504.364C512.45 504.364 512.45 504.364 512.417 504.36C512.286 504.342 512.159 504.291 511.995 504.269C511.479 504.131 510.963 503.994 510.451 503.823C509.906 503.648 509.371 503.407 508.835 503.167C508.676 503.111 508.553 503.028 508.394 502.972C508.333 502.931 508.267 502.922 508.206 502.88C508.394 502.972 508.145 502.838 508.079 502.829C507.797 502.69 507.515 502.551 507.238 502.379C505.997 501.673 504.765 500.902 503.612 500.041C502.977 499.552 502.341 499.064 501.739 498.579C501.409 498.3 501.079 498.02 500.783 497.745C500.665 497.629 500.754 497.708 500.783 497.745C500.754 497.708 500.693 497.666 500.665 497.629C500.575 497.55 500.486 497.47 500.396 497.391C500.217 497.233 500.071 497.079 499.892 496.92C496.864 494.129 494.118 490.973 491.551 487.742C491.494 487.668 491.438 487.593 491.348 487.514C491.117 487.984 490.73 488.367 490.093 488.38Z" fill="#504842"/>
<path d="M518.595 463.343C521.324 466.127 523.894 469.091 526.204 472.253C526.487 472.627 526.737 472.996 526.988 473.365C527.097 473.547 527.21 473.697 527.319 473.879C527.371 473.987 527.46 474.066 527.513 474.174C527.541 474.211 527.569 474.248 527.598 474.286C527.598 474.286 527.598 474.286 527.593 474.319C527.593 474.319 527.593 474.319 527.621 474.356C528.094 475.057 528.534 475.753 528.936 476.478C529.693 477.787 530.385 479.087 530.965 480.473C531.216 481.077 531.464 481.713 531.678 482.345C531.707 482.383 531.774 482.626 531.702 482.416C531.726 482.486 531.75 482.556 531.774 482.626C531.821 482.767 531.864 482.94 531.912 483.081C532.007 483.362 532.065 483.671 532.161 483.952C532.286 484.505 532.411 485.058 532.47 485.602C532.5 485.874 532.53 486.146 532.559 486.418C532.579 486.521 532.593 486.657 532.575 486.788L532.571 486.821C532.562 486.887 532.586 486.957 532.577 487.023C532.608 487.529 532.578 487.994 532.543 488.492C532.512 488.722 532.513 488.956 532.449 489.182C532.435 489.281 532.417 489.412 532.404 489.511C532.399 489.544 532.353 489.638 532.381 489.675L532.377 489.708C532.286 490.131 532.161 490.549 532.009 490.93C531.949 491.123 531.857 491.311 531.759 491.533C531.755 491.565 531.713 491.627 531.709 491.66C531.662 491.754 531.616 491.848 531.57 491.942C531.389 492.286 531.138 492.653 530.896 492.955C530.817 493.045 530.771 493.139 530.696 493.196C530.659 493.224 530.621 493.252 530.612 493.318C530.612 493.318 530.612 493.318 530.608 493.351C530.487 493.502 530.333 493.648 530.217 493.766C530.1 493.884 529.988 493.97 529.876 494.055C530.225 494.437 530.5 494.877 530.737 495.345C531.417 494.768 532.046 494.084 532.548 493.348C533.602 491.751 534.093 489.876 534.152 487.975C534.213 485.572 533.637 483.183 532.809 480.926C531.681 477.925 530.053 475.157 528.272 472.536C525.904 469.064 523.131 465.872 520.236 462.83C520.18 462.756 520.118 462.714 520.062 462.639C519.727 463.129 519.105 463.278 518.595 463.343Z" fill="#504842"/>
<path d="M497.805 497.271C500.584 499.929 503.06 501.875 505.627 503.398C508.072 504.837 510.359 505.719 512.577 506.123C514.603 506.467 516.599 506.305 518.333 505.604C519.357 505.208 520.309 504.602 521.185 503.817C521.223 503.789 521.227 503.756 521.232 503.723C521.236 503.69 521.208 503.653 521.179 503.616C520.747 503.356 520.328 502.997 520.044 502.623C520.016 502.586 519.983 502.581 519.95 502.577C519.918 502.572 519.88 502.601 519.843 502.629C519.731 502.714 519.619 502.799 519.54 502.889C519.465 502.946 519.391 503.003 519.316 503.059C519.279 503.088 519.241 503.116 519.2 503.177C519.2 503.177 519.167 503.173 519.162 503.206L518.98 503.315C518.906 503.372 518.798 503.424 518.723 503.481C518.541 503.59 518.364 503.666 518.182 503.775C518.004 503.851 517.789 503.956 517.616 503.999C517.546 504.023 517.476 504.047 517.406 504.071L517.195 504.142C516.812 504.257 516.395 504.368 515.955 504.408C515.749 504.447 515.515 504.449 515.276 504.483L515.206 504.507C515.173 504.502 515.173 504.502 515.14 504.498C515.037 504.517 514.906 504.499 514.803 504.519C514.335 504.522 513.87 504.492 513.411 504.429C513.181 504.397 512.951 504.366 512.689 504.33L512.492 504.303C512.361 504.285 512.234 504.234 512.07 504.212C511.553 504.074 511.037 503.937 510.526 503.766C510.014 503.596 509.474 503.388 508.91 503.11C508.75 503.055 508.628 502.971 508.468 502.916L508.313 502.827L508.281 502.823L508.187 502.777C507.905 502.638 507.623 502.499 507.345 502.327C506.165 501.663 504.966 500.896 503.752 499.993C503.145 499.542 502.51 499.053 501.879 498.532C501.549 498.252 501.22 497.973 500.923 497.698C500.923 497.698 500.89 497.693 500.895 497.66L500.537 497.343C500.358 497.185 500.212 497.031 500.033 496.873C497.272 494.318 494.57 491.337 491.724 487.699L491.521 487.47C491.493 487.433 491.46 487.428 491.427 487.424C491.394 487.419 491.357 487.448 491.32 487.476C491.046 488.008 490.678 488.259 490.172 488.29C490.139 488.286 490.102 488.314 490.102 488.314L490.064 488.343C490.06 488.376 490.051 488.441 490.079 488.479C492.653 491.912 495.237 494.777 497.805 497.271Z" fill="#ADA5A0"/>
<path d="M530.831 495.391C531.549 494.786 532.177 494.101 532.646 493.362C533.659 491.826 534.215 489.959 534.259 487.923C534.322 485.754 533.868 483.449 532.921 480.841C531.945 478.196 530.472 475.516 528.351 472.446C526.205 469.306 523.563 466.132 520.315 462.741L520.141 462.549C520.113 462.512 520.08 462.507 520.047 462.503C520.014 462.499 519.977 462.527 519.972 462.56C519.642 463.017 519.053 463.171 518.58 463.207C518.547 463.202 518.542 463.235 518.51 463.23C518.51 463.23 518.472 463.259 518.468 463.292C518.463 463.325 518.454 463.39 518.483 463.428C521.504 466.52 523.981 469.437 526.096 472.305C526.379 472.679 526.63 473.048 526.88 473.417C526.989 473.6 527.102 473.749 527.244 473.936L527.523 474.342L527.551 474.38C528.052 475.118 528.459 475.81 528.866 476.502C529.68 477.886 530.339 479.182 530.862 480.492C531.109 481.129 531.361 481.733 531.58 482.332L531.599 482.435L531.595 482.468L531.59 482.501L531.638 482.641C531.685 482.782 531.729 482.955 531.776 483.096C531.872 483.376 531.93 483.686 531.992 483.962C532.117 484.515 532.242 485.068 532.306 485.579C532.336 485.851 532.365 486.123 532.395 486.395C532.414 486.498 532.429 486.634 532.411 486.766L532.417 486.967C532.448 487.474 532.418 487.939 532.388 488.404C532.356 488.634 532.358 488.868 532.294 489.094C532.28 489.193 532.262 489.324 532.249 489.423L532.244 489.456C532.235 489.521 532.231 489.554 532.226 489.587L532.222 489.62C532.13 490.043 532.006 490.461 531.854 490.842C531.794 491.035 531.701 491.223 531.609 491.412L531.512 491.633C531.47 491.694 531.461 491.76 531.419 491.821C531.238 492.165 530.992 492.499 530.746 492.834C530.666 492.924 530.625 492.985 530.545 493.075L530.345 493.315C530.229 493.433 530.15 493.523 530.033 493.641C529.921 493.726 529.842 493.816 529.73 493.901L529.693 493.929C529.656 493.958 529.651 493.99 529.647 494.023C529.642 494.056 529.671 494.094 529.666 494.126C529.987 494.472 530.294 494.916 530.498 495.379C530.526 495.416 530.555 495.454 530.587 495.458C530.756 495.448 530.793 495.419 530.831 495.391Z" fill="#ADA5A0"/>
<path d="M456.637 406.109C458.903 401.027 460.78 395.859 460.612 390.243C460.457 385.265 458.784 380.381 456.827 375.861C452.829 366.707 446.426 357.292 448.324 346.835C448.86 343.894 444.265 343.265 443.729 346.206C441.845 356.565 447.109 365.992 451.322 375.041C453.395 379.444 455.305 384.059 455.84 388.954C456.424 394.459 454.546 399.393 452.335 404.315C451.127 407.03 455.425 408.857 456.637 406.109Z" fill="#7A8891"/>
<path d="M133.772 458V483.544" stroke="#D0EAE7" stroke-width="6" stroke-miterlimit="10" stroke-linecap="round" stroke-linejoin="round"/>
<path d="M146.544 470.772H121" stroke="#D0EAE7" stroke-width="6" stroke-miterlimit="10" stroke-linecap="round" stroke-linejoin="round"/>
<defs>
<clipPath id="clip0_3_138">
<rect width="594.385" height="403.018" fill="white"/>
</clipPath>
</defs>
</svg>
