<svg width="61" height="61" viewBox="0 0 61 61" fill="none" xmlns="http://www.w3.org/2000/svg">
<path d="M1.00037 30.4864H1.03596C1.58418 30.4868 2.03392 30.0523 2.0526 29.5044C2.6026 13.7926 15.7853 1.50168 31.497 2.05156C37.5404 2.26315 43.3595 4.39365 48.1106 8.13452H42.7C42.1386 8.13452 41.6834 8.58972 41.6834 9.15116C41.6834 9.7126 42.1386 10.1678 42.7 10.1678H50.8332H50.8474C50.927 10.1613 51.0054 10.1457 51.0812 10.121C51.1332 10.1135 51.1844 10.1024 51.2348 10.0875C51.2632 10.0753 51.2846 10.0499 51.312 10.0346C51.4033 9.99002 51.487 9.93131 51.5601 9.86078L51.5703 9.85366C51.596 9.81834 51.6196 9.78135 51.6404 9.74285C51.6936 9.67804 51.7385 9.60662 51.7736 9.53037C51.8015 9.44929 51.8187 9.36491 51.8244 9.27926C51.8361 9.23732 51.8446 9.1945 51.8498 9.15116V1.01801C51.8498 0.456573 51.3946 0.00137106 50.8332 0.00137106C50.2717 0.00137106 49.8165 0.456573 49.8165 1.01801V6.90641C36.7907 -3.76606 17.5792 -1.85832 6.90669 11.1677C2.67072 16.3378 0.250853 22.7565 0.0193125 29.4363C0.000504633 29.9971 0.439567 30.4671 1.00037 30.4864Z" fill="#31BBAC"/>
<path d="M9.23103 49.4194C8.85792 48.9982 8.21413 48.9593 7.79299 49.3325C7.37184 49.7056 7.33296 50.3493 7.70606 50.7705C8.40589 51.5558 9.14525 52.3051 9.92133 53.0152C10.3434 53.3857 10.9856 53.3437 11.3561 52.9218C11.716 52.5117 11.688 51.8908 11.2928 51.5147C10.5702 50.8519 9.88206 50.1526 9.23103 49.4194Z" fill="#31BBAC"/>
<path d="M21.3638 57.4692C20.4343 57.1545 19.5219 56.7917 18.63 56.3824C18.1269 56.1332 17.5169 56.3391 17.2677 56.8422C17.0185 57.3453 17.2244 57.9553 17.7275 58.2045C17.7448 58.213 17.7623 58.2211 17.7801 58.2286C18.7363 58.6688 19.715 59.0583 20.7121 59.3957C21.2441 59.5757 21.8213 59.2902 22.0012 58.7583C22.1813 58.2263 21.8959 57.6491 21.3638 57.4692Z" fill="#31BBAC"/>
<path d="M16.023 55.016V55.015C15.1781 54.5144 14.359 53.9715 13.5689 53.3884C13.128 53.0406 12.4888 53.116 12.141 53.5569C11.7932 53.9977 11.8686 54.6369 12.3095 54.9848C12.326 54.9977 12.3428 55.0103 12.3601 55.0222C13.2052 55.6479 14.0816 56.2298 14.9861 56.7658C15.4692 57.0521 16.0931 56.8926 16.3794 56.4095C16.6658 55.9262 16.5062 55.3023 16.023 55.016Z" fill="#31BBAC"/>
<path d="M7.38971 47.1248C6.81657 46.328 6.28461 45.5024 5.79561 44.6513C5.51489 44.1642 4.89245 43.997 4.40535 44.2777C3.91825 44.5584 3.75101 45.1808 4.03173 45.6679C4.55556 46.578 5.12564 47.4605 5.73969 48.3122C6.07684 48.7612 6.71415 48.8518 7.16312 48.5147C7.59926 48.1872 7.69927 47.5739 7.38971 47.1248Z" fill="#31BBAC"/>
<path d="M4.55343 42.447C4.55343 42.3053 4.52369 42.1651 4.46638 42.0356L4.46435 42.0285C4.06646 41.1323 3.71521 40.2161 3.41212 39.2836C3.26471 38.7418 2.70594 38.4221 2.16419 38.5696C1.62245 38.717 1.30271 39.2758 1.45025 39.8176C1.45889 39.8491 1.46893 39.8802 1.4805 39.9108C1.80493 40.9124 2.18097 41.8965 2.60694 42.8591C2.76998 43.2271 3.1347 43.4643 3.53717 43.464C4.09861 43.4637 4.55356 43.0084 4.55343 42.447Z" fill="#31BBAC"/>
<path d="M1.86966 37.6437C1.86979 37.6437 1.87004 37.6436 1.87017 37.6436C2.41877 37.5267 2.76901 36.9876 2.65298 36.4389C2.45042 35.4785 2.29703 34.5084 2.19346 33.5323C2.13424 32.9737 1.63329 32.5688 1.07464 32.628C0.515998 32.6872 0.11112 33.1882 0.17034 33.7468C0.281662 34.7923 0.446485 35.8313 0.664428 36.8598C0.780834 37.4092 1.32042 37.76 1.86966 37.6437Z" fill="#31BBAC"/>
<path d="M59.3739 36.6059C59.3735 36.6057 59.3731 36.6057 59.3728 36.6056C58.8278 36.4707 58.2767 36.8028 58.1416 37.3478C57.906 38.3009 57.6214 39.2411 57.2887 40.1649C57.0983 40.6933 57.3723 41.2758 57.9007 41.4662C58.4291 41.6566 59.0116 41.3826 59.202 40.8542C59.5587 39.8649 59.8641 38.8576 60.1169 37.8368C60.2516 37.2917 59.9189 36.7407 59.3739 36.6059Z" fill="#31BBAC"/>
<path d="M27.096 58.7634C26.1215 58.6473 25.1538 58.4811 24.1965 58.2652C23.6488 58.1414 23.1044 58.485 22.9806 59.0328C22.8568 59.5805 23.2004 60.1249 23.7482 60.2487C24.7742 60.48 25.8116 60.6581 26.856 60.7824C26.8966 60.7874 26.9372 60.7897 26.978 60.7895C27.5395 60.7884 27.9937 60.3322 27.9925 59.7707C27.9915 59.2566 27.6067 58.8241 27.096 58.7634Z" fill="#31BBAC"/>
<path d="M57.4987 42.4046C56.9933 42.1606 56.3859 42.3722 56.1414 42.8773C55.714 43.761 55.241 44.622 54.7241 45.4565C54.4367 45.9389 54.5948 46.5629 55.0772 46.8502C55.5478 47.1307 56.1561 46.9877 56.4524 46.527C57.0058 45.6325 57.5124 44.7098 57.9703 43.7628C58.2152 43.2575 58.004 42.6494 57.4987 42.4046Z" fill="#31BBAC"/>
<path d="M54.496 47.692C54.0565 47.3425 53.4169 47.4155 53.0675 47.855C53.0614 47.8627 53.0554 47.8704 53.0496 47.8782V47.8761C52.4497 48.6543 51.8101 49.4007 51.1332 50.1128C50.7461 50.5198 50.7622 51.1637 51.1693 51.5508C51.5763 51.9379 52.2202 51.9217 52.6073 51.5147C53.3312 50.7518 54.016 49.9528 54.6589 49.1205C55.0084 48.6811 54.9354 48.0415 54.496 47.692Z" fill="#31BBAC"/>
<path d="M60.0004 30.5484C59.4481 30.5202 58.9774 30.9452 58.9493 31.4975C58.9488 31.5078 58.9484 31.5182 58.9482 31.5285C58.9137 32.5095 58.8284 33.4882 58.693 34.4605C58.6164 35.016 59.0039 35.5285 59.5592 35.6062C59.6063 35.6131 59.6538 35.6165 59.7015 35.6164C60.2082 35.6156 60.6371 35.2419 60.7069 34.7401C60.8517 33.6986 60.9429 32.6505 60.9804 31.5997C60.9999 31.0388 60.5613 30.5683 60.0004 30.5484Z" fill="#31BBAC"/>
<path d="M49.0022 52.1348V52.1379C48.2539 52.7766 47.4735 53.3765 46.6639 53.9353C46.2009 54.2553 46.0852 54.89 46.4051 55.353C46.7251 55.816 47.3599 55.9317 47.8228 55.6117C48.6886 55.0105 49.5233 54.3658 50.3238 53.6801C50.7505 53.3151 50.8006 52.6734 50.4356 52.2467C50.0708 51.8199 49.4289 51.7698 49.0022 52.1348Z" fill="#31BBAC"/>
<path d="M38.7453 57.7548C37.8058 58.038 36.8524 58.272 35.8886 58.4563C35.3372 58.5624 34.9761 59.0953 35.0823 59.6467C35.1741 60.1246 35.592 60.4704 36.0787 60.4713C36.1431 60.4715 36.2074 60.4657 36.2708 60.454C37.304 60.2565 38.3261 60.0052 39.333 59.7007C39.8662 59.5249 40.1561 58.9501 39.9803 58.4169C39.8108 57.9025 39.2676 57.6114 38.7453 57.7548Z" fill="#31BBAC"/>
<path d="M33.0272 58.8563C33.0085 58.8573 32.9899 58.8589 32.9714 58.861L32.9765 58.865C32.1631 58.9342 31.3305 58.9667 30.5009 58.9667H30.0363C29.4819 58.9746 29.0287 59.4112 29.0004 59.9651C28.9902 60.5265 29.437 60.9898 29.9983 61C29.9985 61 29.9986 61 29.9987 61H30.5009C31.3895 61 32.2801 60.9603 33.1442 60.8861C33.7048 60.8539 34.133 60.3732 34.1006 59.8127C34.0682 59.2521 33.5876 58.8239 33.0272 58.8563Z" fill="#31BBAC"/>
<path d="M44.1616 55.4786H44.1626C43.3019 55.95 42.4177 56.3768 41.5133 56.7576C40.993 56.9686 40.7423 57.5615 40.9532 58.0817C41.1642 58.602 41.7571 58.8527 42.2774 58.6418C42.285 58.6387 42.2925 58.6355 42.3 58.6322C43.2691 58.2244 44.2165 57.7671 45.1385 57.2618C45.6309 56.992 45.8114 56.3741 45.5416 55.8817C45.2721 55.3893 44.6541 55.2088 44.1616 55.4786Z" fill="#31BBAC"/>
<path d="M30.5001 9.15118C18.7091 9.15118 9.15063 18.7097 9.15063 30.5007C9.15063 42.2917 18.7091 51.8502 30.5001 51.8502C42.2912 51.8502 51.8497 42.2917 51.8497 30.5007C51.8363 18.7153 42.2856 9.16465 30.5001 9.15118ZM46.7664 31.5173H49.7645C49.2364 41.3682 41.3677 49.2369 31.5168 49.7651V46.767C31.5168 46.2055 31.0616 45.7503 30.5001 45.7503C29.9387 45.7503 29.4835 46.2055 29.4835 46.767V49.7651C19.6326 49.2369 11.7639 41.3682 11.2358 31.5173H14.2339C14.7953 31.5173 15.2505 31.0621 15.2505 30.5007C15.2505 29.9393 14.7953 29.4841 14.2339 29.4841H11.2358C11.7639 19.6332 19.6326 11.7645 29.4835 11.2363V14.2344C29.4835 14.7958 29.9387 15.251 30.5001 15.251C31.0616 15.251 31.5168 14.7958 31.5168 14.2344V11.2363C41.3677 11.7645 49.2364 19.6332 49.7645 29.4841H46.7664C46.205 29.4841 45.7498 29.9393 45.7498 30.5007C45.7498 31.0621 46.205 31.5173 46.7664 31.5173Z" fill="#31BBAC"/>
<path d="M31.5174 27.6378V18.3009C31.5174 17.7395 31.0622 17.2843 30.5008 17.2843C29.9393 17.2843 29.4841 17.7395 29.4841 18.3009V27.6378C28.6232 27.9453 27.9454 28.623 27.6379 29.484H22.3676C21.8062 29.484 21.351 29.9392 21.351 30.5007C21.351 31.0621 21.8062 31.5173 22.3676 31.5173H27.6379C28.195 33.1028 29.932 33.9364 31.5174 33.3793C33.1029 32.8222 33.9365 31.0852 33.3794 29.4998C33.0734 28.6288 32.3884 27.9439 31.5174 27.6378ZM30.5008 31.5173C29.9393 31.5173 29.4841 31.0621 29.4841 30.5007C29.4841 29.9392 29.9393 29.484 30.5008 29.484C31.0622 29.484 31.5174 29.9392 31.5174 30.5007C31.5174 31.0621 31.0623 31.5173 30.5008 31.5173Z" fill="#31BBAC"/>
</svg>
