<svg width="44" height="44" viewBox="0 0 44 44" fill="none" xmlns="http://www.w3.org/2000/svg">
<g filter="url(#filter0_d_3_48)">
<circle cx="20.5135" cy="19.4865" r="17.5135" fill="white"/>
<circle cx="20.5135" cy="19.4865" r="17.0135" stroke="#31BBAC"/>
</g>
<mask id="mask0_3_48" style="mask-type:alpha" maskUnits="userSpaceOnUse" x="3" y="1" width="36" height="36">
<circle cx="20.5135" cy="18.5135" r="17.0135" fill="white" stroke="#299B8E"/>
</mask>
<g mask="url(#mask0_3_48)">
<path d="M20.2044 21.5034C22.0588 21.5034 23.6645 20.8383 24.9765 19.5261C26.2886 18.2141 26.9536 16.6087 26.9536 14.7541C26.9536 12.9002 26.2886 11.2946 24.9763 9.9822C23.6641 8.6704 22.0585 8.00531 20.2044 8.00531C18.3498 8.00531 16.7444 8.6704 15.4324 9.98241C14.1204 11.2944 13.4551 12.9 13.4551 14.7541C13.4551 16.6087 14.1204 18.2143 15.4326 19.5263C16.7448 20.8381 18.3504 21.5034 20.2044 21.5034Z" fill="#31BBAC"/>
<path d="M32.0139 29.5525C31.9761 29.0065 31.8995 28.4109 31.7869 27.7819C31.6731 27.1483 31.5267 26.5492 31.3514 26.0017C31.1703 25.4358 30.924 24.877 30.6196 24.3414C30.3036 23.7856 29.9325 23.3016 29.516 22.9033C29.0805 22.4866 28.5473 22.1516 27.9308 21.9073C27.3163 21.6642 26.6354 21.541 25.907 21.541C25.621 21.541 25.3444 21.6584 24.8101 22.0062C24.4813 22.2207 24.0967 22.4687 23.6674 22.743C23.3003 22.9768 22.8031 23.196 22.1888 23.3944C21.5896 23.5883 20.9812 23.6866 20.3806 23.6866C19.7801 23.6866 19.1719 23.5883 18.572 23.3944C17.9584 23.1962 17.4611 22.9771 17.0945 22.7432C16.6693 22.4714 16.2845 22.2235 15.9507 22.006C15.4171 21.6582 15.1403 21.5408 14.8542 21.5408C14.1256 21.5408 13.4449 21.6642 12.8307 21.9075C12.2146 22.1514 11.6812 22.4864 11.2453 22.9035C10.829 23.302 10.4577 23.7858 10.1421 24.3414C9.83789 24.877 9.59161 25.4356 9.41031 26.0019C9.23522 26.5494 9.08878 27.1483 8.97504 27.7819C8.86238 28.41 8.78584 29.0059 8.748 29.5531C8.7108 30.0893 8.69199 30.6458 8.69199 31.2079C8.69199 32.6706 9.15697 33.8548 10.0739 34.7281C10.9795 35.5899 12.1778 36.0271 13.635 36.0271H27.1276C28.5847 36.0271 29.7826 35.5901 30.6884 34.7281C31.6056 33.8554 32.0706 32.671 32.0706 31.2076C32.0703 30.643 32.0513 30.0861 32.0139 29.5525Z" fill="#31BBAC"/>
</g>
<defs>
<filter id="filter0_d_3_48" x="0" y="0.972961" width="43.027" height="43.027" filterUnits="userSpaceOnUse" color-interpolation-filters="sRGB">
<feFlood flood-opacity="0" result="BackgroundImageFix"/>
<feColorMatrix in="SourceAlpha" type="matrix" values="0 0 0 0 0 0 0 0 0 0 0 0 0 0 0 0 0 0 127 0" result="hardAlpha"/>
<feOffset dx="1" dy="3"/>
<feGaussianBlur stdDeviation="2"/>
<feComposite in2="hardAlpha" operator="out"/>
<feColorMatrix type="matrix" values="0 0 0 0 0 0 0 0 0 0 0 0 0 0 0 0 0 0 0.1 0"/>
<feBlend mode="normal" in2="BackgroundImageFix" result="effect1_dropShadow_3_48"/>
<feBlend mode="normal" in="SourceGraphic" in2="effect1_dropShadow_3_48" result="shape"/>
</filter>
</defs>
</svg>
